<svg version="1.1" viewBox="0.0 0.0 676.4409448818898 387.61942257217845" fill="none" stroke="none" stroke-linecap="square" stroke-miterlimit="10" xmlns:xlink="http://www.w3.org/1999/xlink" xmlns="http://www.w3.org/2000/svg"><clipPath id="p.0"><path d="m0 0l676.4409 0l0 387.61942l-676.4409 0l0 -387.61942z" clip-rule="nonzero"/></clipPath><g clip-path="url(#p.0)"><path fill="#000000" fill-opacity="0.0" d="m0 0l676.4409 0l0 387.61942l-676.4409 0z" fill-rule="evenodd"/><path fill="#ffffff" d="m10.627296 199.85576l642.58264 0l0 181.35432l-642.58264 0z" fill-rule="evenodd"/><path stroke="#000000" stroke-width="1.0" stroke-linejoin="round" stroke-linecap="butt" d="m10.627296 199.85576l642.58264 0l0 181.35432l-642.58264 0z" fill-rule="evenodd"/><path fill="#cccccc" d="m10.627296 8.947507l642.58264 0l0 181.35432l-642.58264 0z" fill-rule="evenodd"/><path stroke="#000000" stroke-width="1.0" stroke-linejoin="round" stroke-linecap="butt" d="m10.627296 8.947507l642.58264 0l0 181.35432l-642.58264 0z" fill-rule="evenodd"/><path fill="#cfe2f3" d="m159.54399 38.942673l90.690674 0l0 129.60896l-90.690674 0z" fill-rule="evenodd"/><path stroke="#000000" stroke-width="1.0" stroke-linejoin="round" stroke-linecap="butt" d="m159.54399 38.942673l90.690674 0l0 129.60896l-90.690674 0z" fill-rule="evenodd"/><path fill="#000000" d="m171.05043 104.62778q0 -1.3125 0.59375 -2.09375q0.59375 -0.78125 1.609375 -0.78125q0.828125 0 1.359375 0.609375l0 -2.875l1.515625 0l0 8.0l-1.359375 0l-0.078125 -0.59375q-0.5625 0.703125 -1.4375 0.703125q-1.0 0 -1.609375 -0.78125q-0.59375 -0.796875 -0.59375 -2.1875zm1.5 0.109375q0 0.796875 0.28125 1.21875q0.28125 0.421875 0.796875 0.421875q0.703125 0 0.984375 -0.59375l0 -2.21875q-0.28125 -0.59375 -0.96875 -0.59375q-1.09375 0 -1.09375 1.765625zm7.332672 2.859375q-1.234375 0 -2.015625 -0.765625q-0.78125 -0.765625 -0.78125 -2.015625l0 -0.15625q0 -0.84375 0.328125 -1.515625q0.328125 -0.671875 0.921875 -1.03125q0.609375 -0.359375 1.375 -0.359375q1.15625 0 1.8125 0.734375q0.671875 0.71875 0.671875 2.0625l0 0.609375l-3.578125 0q0.0625 0.546875 0.421875 0.890625q0.375 0.328125 0.9375 0.328125q0.875 0 1.359375 -0.625l0.734375 0.828125q-0.328125 0.46875 -0.90625 0.75q-0.578125 0.265625 -1.28125 0.265625zm-0.171875 -4.625q-0.453125 0 -0.734375 0.3125q-0.265625 0.296875 -0.34375 0.859375l2.078125 0l0 -0.125q0 -0.5 -0.265625 -0.765625q-0.265625 -0.28125 -0.734375 -0.28125zm4.7443695 -1.109375l0.046875 0.625q0.609375 -0.734375 1.625 -0.734375q1.078125 0 1.484375 0.859375q0.59375 -0.859375 1.703125 -0.859375q0.90625 0 1.34375 0.53125q0.453125 0.53125 0.453125 1.609375l0 3.59375l-1.5 0l0 -3.59375q0 -0.46875 -0.1875 -0.6875q-0.1875 -0.234375 -0.65625 -0.234375q-0.6875 0 -0.9375 0.65625l0 3.859375l-1.5 0l0 -3.578125q0 -0.5 -0.203125 -0.71875q-0.1875 -0.21875 -0.65625 -0.21875q-0.625 0 -0.921875 0.53125l0 3.984375l-1.5 0l0 -5.625l1.40625 0zm7.584732 2.765625q0 -0.84375 0.3125 -1.5q0.328125 -0.65625 0.9375 -1.015625q0.609375 -0.359375 1.40625 -0.359375q1.140625 0 1.859375 0.703125q0.71875 0.6875 0.8125 1.890625l0 0.390625q0 1.28125 -0.71875 2.078125q-0.71875 0.78125 -1.9375 0.78125q-1.21875 0 -1.953125 -0.78125q-0.71875 -0.78125 -0.71875 -2.125l0 -0.0625zm1.5 0.109375q0 0.796875 0.296875 1.21875q0.3125 0.421875 0.875 0.421875q0.546875 0 0.84375 -0.421875q0.3125 -0.421875 0.3125 -1.328125q0 -0.796875 -0.3125 -1.21875q-0.296875 -0.4375 -0.859375 -0.4375q-0.546875 0 -0.859375 0.4375q-0.296875 0.421875 -0.296875 1.328125zm4.540985 -0.109375q0 -1.296875 0.609375 -2.078125q0.625 -0.796875 1.671875 -0.796875q0.921875 0 1.4375 0.640625l0.0625 -0.53125l1.359375 0l0 5.4375q0 0.734375 -0.34375 1.28125q-0.328125 0.546875 -0.9375 0.828125q-0.609375 0.296875 -1.421875 0.296875q-0.609375 0 -1.203125 -0.25q-0.59375 -0.25 -0.890625 -0.640625l0.671875 -0.90625q0.5625 0.625 1.359375 0.625q0.59375 0 0.921875 -0.328125q0.34375 -0.3125 0.34375 -0.90625l0 -0.296875q-0.53125 0.59375 -1.375 0.59375q-1.015625 0 -1.640625 -0.796875q-0.625 -0.796875 -0.625 -2.109375l0 -0.0625zm1.5 0.109375q0 0.765625 0.3125 1.203125q0.3125 0.4375 0.84375 0.4375q0.6875 0 0.984375 -0.515625l0 -2.375q-0.3125 -0.515625 -0.984375 -0.515625q-0.53125 0 -0.84375 0.453125q-0.3125 0.4375 -0.3125 1.3125zm7.957596 -1.46875q-0.296875 -0.046875 -0.53125 -0.046875q-0.859375 0 -1.125 0.578125l0 3.6875l-1.5 0l0 -5.625l1.421875 0l0.046875 0.671875q0.453125 -0.78125 1.25 -0.78125q0.25 0 0.46875 0.0625l-0.03125 1.453125zm3.8399506 4.21875q-0.109375 -0.203125 -0.15625 -0.5q-0.546875 0.609375 -1.421875 0.609375q-0.828125 0 -1.375 -0.484375q-0.53125 -0.484375 -0.53125 -1.203125q0 -0.90625 0.65625 -1.375q0.671875 -0.484375 1.921875 -0.484375l0.6875 0l0 -0.328125q0 -0.390625 -0.203125 -0.625q-0.203125 -0.234375 -0.625 -0.234375q-0.375 0 -0.59375 0.1875q-0.21875 0.1875 -0.21875 0.5l-1.5 0q0 -0.484375 0.296875 -0.90625q0.296875 -0.421875 0.84375 -0.65625q0.5625 -0.234375 1.25 -0.234375q1.03125 0 1.640625 0.53125q0.625 0.515625 0.625 1.46875l0 2.4375q0 0.796875 0.21875 1.203125l0 0.09375l-1.515625 0zm-1.25 -1.046875q0.328125 0 0.609375 -0.140625q0.28125 -0.15625 0.421875 -0.40625l0 -0.96875l-0.5625 0q-1.125 0 -1.203125 0.78125l0 0.09375q0 0.28125 0.1875 0.46875q0.203125 0.171875 0.546875 0.171875zm8.76004 -1.71875q0 1.296875 -0.59375 2.09375q-0.578125 0.78125 -1.59375 0.78125q-0.84375 0 -1.375 -0.59375l0 2.65625l-1.5 0l0 -7.796875l1.390625 0l0.0625 0.546875q0.546875 -0.65625 1.421875 -0.65625q1.03125 0 1.609375 0.78125q0.578125 0.765625 0.578125 2.109375l0 0.078125zm-1.5 -0.109375q0 -0.78125 -0.28125 -1.203125q-0.28125 -0.4375 -0.8125 -0.4375q-0.703125 0 -0.96875 0.546875l0 2.296875q0.28125 0.5625 0.984375 0.5625q1.078125 0 1.078125 -1.765625zm3.9055939 -2.140625q0.59375 -0.71875 1.5 -0.71875q1.828125 0 1.859375 2.125l0 3.609375l-1.5 0l0 -3.5625q0 -0.484375 -0.21875 -0.71875q-0.203125 -0.234375 -0.6875 -0.234375q-0.65625 0 -0.953125 0.515625l0 4.0l-1.5 0l0 -8.0l1.5 0l0 2.984375zm6.087921 5.015625l-1.515625 0l0 -5.625l1.515625 0l0 5.625zm-1.609375 -7.09375q0 -0.328125 0.21875 -0.546875q0.234375 -0.21875 0.625 -0.21875q0.390625 0 0.609375 0.21875q0.234375 0.21875 0.234375 0.546875q0 0.34375 -0.234375 0.5625q-0.21875 0.21875 -0.609375 0.21875q-0.375 0 -0.609375 -0.21875q-0.234375 -0.21875 -0.234375 -0.5625zm5.184738 5.984375q0.40625 0 0.671875 -0.21875q0.265625 -0.234375 0.265625 -0.625l1.421875 0q-0.015625 0.578125 -0.328125 1.0625q-0.296875 0.46875 -0.828125 0.734375q-0.53125 0.265625 -1.1875 0.265625q-1.203125 0 -1.90625 -0.765625q-0.6875 -0.78125 -0.6875 -2.125l0 -0.09375q0 -1.3125 0.6875 -2.078125q0.703125 -0.78125 1.90625 -0.78125q1.046875 0 1.6875 0.609375q0.640625 0.59375 0.65625 1.59375l-1.421875 0q0 -0.4375 -0.265625 -0.703125q-0.265625 -0.28125 -0.6875 -0.28125q-0.515625 0 -0.796875 0.390625q-0.265625 0.375 -0.265625 1.234375l0 0.15625q0 0.859375 0.265625 1.25q0.265625 0.375 0.8125 0.375zm6.260193 -0.453125q0 -0.265625 -0.28125 -0.421875q-0.265625 -0.171875 -0.859375 -0.296875q-2.015625 -0.40625 -2.015625 -1.703125q0 -0.75 0.625 -1.25q0.625 -0.5 1.625 -0.5q1.0625 0 1.703125 0.515625q0.65625 0.5 0.65625 1.296875l-1.515625 0q0 -0.3125 -0.203125 -0.515625q-0.203125 -0.21875 -0.65625 -0.21875q-0.375 0 -0.578125 0.171875q-0.203125 0.171875 -0.203125 0.4375q0 0.25 0.234375 0.40625q0.234375 0.140625 0.796875 0.265625q0.5625 0.109375 0.9375 0.25q1.203125 0.4375 1.203125 1.5q0 0.78125 -0.671875 1.265625q-0.65625 0.46875 -1.703125 0.46875q-0.703125 0 -1.25 -0.25q-0.546875 -0.265625 -0.859375 -0.703125q-0.3125 -0.4375 -0.3125 -0.953125l1.421875 0q0.015625 0.40625 0.296875 0.625q0.28125 0.203125 0.734375 0.203125q0.4375 0 0.65625 -0.15625q0.21875 -0.171875 0.21875 -0.4375z" fill-rule="nonzero"/><path fill="#cfe2f3" d="m228.21227 64.64188l0 -25.699203l22.0224 25.699203z" fill-rule="evenodd"/><path stroke="#000000" stroke-width="1.0" stroke-linejoin="round" stroke-linecap="butt" d="m228.21227 64.64188l0 -25.699203l22.0224 25.699203z" fill-rule="evenodd"/><path fill="#cccccc" d="m251.5352 36.463814l0 30.656921l-24.623474 -30.656921z" fill-rule="evenodd"/><path fill="#cfe2f3" d="m262.91693 38.942673l90.690674 0l0 129.60896l-90.690674 0z" fill-rule="evenodd"/><path stroke="#000000" stroke-width="1.0" stroke-linejoin="round" stroke-linecap="butt" d="m262.91693 38.942673l90.690674 0l0 129.60896l-90.690674 0z" fill-rule="evenodd"/><path fill="#000000" d="m276.50784 107.48715l0 -4.53125l-0.828125 0l0 -1.09375l0.828125 0l0 -0.484375q0 -0.953125 0.546875 -1.46875q0.546875 -0.515625 1.515625 -0.515625q0.3125 0 0.765625 0.09375l-0.015625 1.171875q-0.1875 -0.046875 -0.453125 -0.046875q-0.84375 0 -0.84375 0.796875l0 0.453125l1.109375 0l0 1.09375l-1.109375 0l0 4.53125l-1.515625 0zm6.6785583 0q-0.109375 -0.203125 -0.15625 -0.5q-0.546875 0.609375 -1.421875 0.609375q-0.828125 0 -1.375 -0.484375q-0.53125 -0.484375 -0.53125 -1.203125q0 -0.90625 0.65625 -1.375q0.671875 -0.484375 1.921875 -0.484375l0.6875 0l0 -0.328125q0 -0.390625 -0.203125 -0.625q-0.203125 -0.234375 -0.625 -0.234375q-0.375 0 -0.59375 0.1875q-0.21875 0.1875 -0.21875 0.5l-1.5 0q0 -0.484375 0.296875 -0.90625q0.296875 -0.421875 0.84375 -0.65625q0.5625 -0.234375 1.25 -0.234375q1.03125 0 1.640625 0.53125q0.625 0.515625 0.625 1.46875l0 2.4375q0 0.796875 0.21875 1.203125l0 0.09375l-1.515625 0zm-1.25 -1.046875q0.328125 0 0.609375 -0.140625q0.28125 -0.15625 0.421875 -0.40625l0 -0.96875l-0.5625 0q-1.125 0 -1.203125 0.78125l0 0.09375q0 0.28125 0.1875 0.46875q0.203125 0.171875 0.546875 0.171875zm5.1037903 -4.578125l0.046875 0.625q0.609375 -0.734375 1.625 -0.734375q1.078125 0 1.484375 0.859375q0.59375 -0.859375 1.703125 -0.859375q0.90625 0 1.34375 0.53125q0.453125 0.53125 0.453125 1.609375l0 3.59375l-1.5 0l0 -3.59375q0 -0.46875 -0.1875 -0.6875q-0.1875 -0.234375 -0.65625 -0.234375q-0.6875 0 -0.9375 0.65625l0 3.859375l-1.5 0l0 -3.578125q0 -0.5 -0.203125 -0.71875q-0.1875 -0.21875 -0.65625 -0.21875q-0.625 0 -0.921875 0.53125l0 3.984375l-1.5 0l0 -5.625l1.40625 0zm9.412872 5.625l-1.515625 0l0 -5.625l1.515625 0l0 5.625zm-1.609375 -7.09375q0 -0.328125 0.21875 -0.546875q0.234375 -0.21875 0.625 -0.21875q0.390625 0 0.609375 0.21875q0.234375 0.21875 0.234375 0.546875q0 0.34375 -0.234375 0.5625q-0.21875 0.21875 -0.609375 0.21875q-0.375 0 -0.609375 -0.21875q-0.234375 -0.21875 -0.234375 -0.5625zm4.434723 7.09375l-1.515625 0l0 -8.0l1.515625 0l0 8.0zm3.3253784 -2.125l1.046875 -3.5l1.609375 0l-2.265625 6.5l-0.125 0.296875q-0.5 1.109375 -1.65625 1.109375q-0.328125 0 -0.671875 -0.109375l0 -1.140625l0.234375 0.015625q0.421875 0 0.625 -0.140625q0.21875 -0.125 0.34375 -0.421875l0.171875 -0.46875l-1.96875 -5.640625l1.625 0l1.03125 3.5zm7.377594 -2.890625q0.59375 -0.71875 1.5 -0.71875q1.828125 0 1.859375 2.125l0 3.609375l-1.5 0l0 -3.5625q0 -0.484375 -0.21875 -0.71875q-0.203125 -0.234375 -0.6875 -0.234375q-0.65625 0 -0.953125 0.515625l0 4.0l-1.5 0l0 -8.0l1.5 0l0 2.984375zm6.087921 5.015625l-1.515625 0l0 -5.625l1.515625 0l0 5.625zm-1.609375 -7.09375q0 -0.328125 0.21875 -0.546875q0.234375 -0.21875 0.625 -0.21875q0.390625 0 0.609375 0.21875q0.234375 0.21875 0.234375 0.546875q0 0.34375 -0.234375 0.5625q-0.21875 0.21875 -0.609375 0.21875q-0.375 0 -0.609375 -0.21875q-0.234375 -0.21875 -0.234375 -0.5625zm5.887848 5.53125q0 -0.265625 -0.28125 -0.421875q-0.265625 -0.171875 -0.859375 -0.296875q-2.015625 -0.40625 -2.015625 -1.703125q0 -0.75 0.625 -1.25q0.625 -0.5 1.625 -0.5q1.0625 0 1.703125 0.515625q0.65625 0.5 0.65625 1.296875l-1.515625 0q0 -0.3125 -0.203125 -0.515625q-0.203125 -0.21875 -0.65625 -0.21875q-0.375 0 -0.578125 0.171875q-0.203125 0.171875 -0.203125 0.4375q0 0.25 0.234375 0.40625q0.234375 0.140625 0.796875 0.265625q0.5625 0.109375 0.9375 0.25q1.203125 0.4375 1.203125 1.5q0 0.78125 -0.671875 1.265625q-0.65625 0.46875 -1.703125 0.46875q-0.703125 0 -1.25 -0.25q-0.546875 -0.265625 -0.859375 -0.703125q-0.3125 -0.4375 -0.3125 -0.953125l1.421875 0q0.015625 0.40625 0.296875 0.625q0.28125 0.203125 0.734375 0.203125q0.4375 0 0.65625 -0.15625q0.21875 -0.171875 0.21875 -0.4375zm4.2290344 -5.453125l0 1.390625l0.96875 0l0 1.09375l-0.96875 0l0 2.8125q0 0.3125 0.125 0.453125q0.125 0.125 0.453125 0.125q0.25 0 0.4375 -0.03125l0 1.140625q-0.4375 0.140625 -0.90625 0.140625q-1.578125 0 -1.609375 -1.609375l0 -3.03125l-0.828125 0l0 -1.09375l0.828125 0l0 -1.390625l1.5 0zm1.413147 4.15625q0 -0.84375 0.3125 -1.5q0.328125 -0.65625 0.9375 -1.015625q0.609375 -0.359375 1.40625 -0.359375q1.140625 0 1.859375 0.703125q0.71875 0.6875 0.8125 1.890625l0 0.390625q0 1.28125 -0.71875 2.078125q-0.71875 0.78125 -1.9375 0.78125q-1.21875 0 -1.953125 -0.78125q-0.71875 -0.78125 -0.71875 -2.125l0 -0.0625zm1.5 0.109375q0 0.796875 0.296875 1.21875q0.3125 0.421875 0.875 0.421875q0.546875 0 0.84375 -0.421875q0.3125 -0.421875 0.3125 -1.328125q0 -0.796875 -0.3125 -1.21875q-0.296875 -0.4375 -0.859375 -0.4375q-0.546875 0 -0.859375 0.4375q-0.296875 0.421875 -0.296875 1.328125zm7.915985 -1.46875q-0.296875 -0.046875 -0.53125 -0.046875q-0.859375 0 -1.125 0.578125l0 3.6875l-1.5 0l0 -5.625l1.421875 0l0.046875 0.671875q0.453125 -0.78125 1.25 -0.78125q0.25 0 0.46875 0.0625l-0.03125 1.453125zm2.9180603 2.09375l1.046875 -3.5l1.609375 0l-2.265625 6.5l-0.125 0.296875q-0.5 1.109375 -1.65625 1.109375q-0.328125 0 -0.671875 -0.109375l0 -1.140625l0.234375 0.015625q0.421875 0 0.625 -0.140625q0.21875 -0.125 0.34375 -0.421875l0.171875 -0.46875l-1.96875 -5.640625l1.625 0l1.03125 3.5z" fill-rule="nonzero"/><path fill="#cfe2f3" d="m331.5852 64.64188l0 -25.699203l22.0224 25.699203z" fill-rule="evenodd"/><path stroke="#000000" stroke-width="1.0" stroke-linejoin="round" stroke-linecap="butt" d="m331.5852 64.64188l0 -25.699203l22.0224 25.699203z" fill-rule="evenodd"/><path fill="#cccccc" d="m354.90814 36.463814l0 30.656921l-24.623474 -30.656921z" fill-rule="evenodd"/><path fill="#93c47d" d="m378.13977 36.063347l90.690674 0l0 129.60895l-90.690674 0z" fill-rule="evenodd"/><path stroke="#000000" stroke-width="1.0" stroke-linejoin="round" stroke-linecap="butt" d="m378.13977 36.063347l90.690674 0l0 129.60895l-90.690674 0z" fill-rule="evenodd"/><path fill="#000000" d="m398.4292 101.8422q0 1.359375 -0.578125 2.125q-0.578125 0.75 -1.625 0.75q-0.90625 0 -1.453125 -0.703125l-0.0625 0.59375l-1.359375 0l0 -8.0l1.5 0l0 2.875q0.53125 -0.609375 1.375 -0.609375q1.03125 0 1.609375 0.765625q0.59375 0.75 0.59375 2.125l0 0.078125zm-1.515625 -0.109375q0 -0.84375 -0.265625 -1.234375q-0.265625 -0.40625 -0.8125 -0.40625q-0.703125 0 -0.984375 0.59375l0 2.21875q0.28125 0.59375 1.0 0.59375q0.734375 0 0.953125 -0.71875q0.109375 -0.34375 0.109375 -1.046875zm4.0305786 2.875l-1.515625 0l0 -5.625l1.515625 0l0 5.625zm-1.609375 -7.09375q0 -0.328125 0.21875 -0.546875q0.234375 -0.21875 0.625 -0.21875q0.390625 0 0.609375 0.21875q0.234375 0.21875 0.234375 0.546875q0 0.34375 -0.234375 0.5625q-0.21875 0.21875 -0.609375 0.21875q-0.375 0 -0.609375 -0.21875q-0.234375 -0.21875 -0.234375 -0.5625zm2.6066284 4.234375q0 -0.84375 0.3125 -1.5q0.328125 -0.65625 0.9375 -1.015625q0.609375 -0.359375 1.40625 -0.359375q1.140625 0 1.859375 0.703125q0.71875 0.6875 0.8125 1.890625l0 0.390625q0 1.28125 -0.71875 2.078125q-0.71875 0.78125 -1.9375 0.78125q-1.21875 0 -1.953125 -0.78125q-0.71875 -0.78125 -0.71875 -2.125l0 -0.0625zm1.5 0.109375q0 0.796875 0.296875 1.21875q0.3125 0.421875 0.875 0.421875q0.546875 0 0.84375 -0.421875q0.3125 -0.421875 0.3125 -1.328125q0 -0.796875 -0.3125 -1.21875q-0.296875 -0.4375 -0.859375 -0.4375q-0.546875 0 -0.859375 0.4375q-0.296875 0.421875 -0.296875 1.328125zm7.80661 1.1875q0 -0.265625 -0.28125 -0.421875q-0.265625 -0.171875 -0.859375 -0.296875q-2.015625 -0.40625 -2.015625 -1.703125q0 -0.75 0.625 -1.25q0.625 -0.5 1.625 -0.5q1.0625 0 1.703125 0.515625q0.65625 0.5 0.65625 1.296875l-1.515625 0q0 -0.3125 -0.203125 -0.515625q-0.203125 -0.21875 -0.65625 -0.21875q-0.375 0 -0.578125 0.171875q-0.203125 0.171875 -0.203125 0.4375q0 0.25 0.234375 0.40625q0.234375 0.140625 0.796875 0.265625q0.5625 0.109375 0.9375 0.25q1.203125 0.4375 1.203125 1.5q0 0.78125 -0.671875 1.265625q-0.65625 0.46875 -1.703125 0.46875q-0.703125 0 -1.25 -0.25q-0.546875 -0.265625 -0.859375 -0.703125q-0.3125 -0.4375 -0.3125 -0.953125l1.421875 0q0.015625 0.40625 0.296875 0.625q0.28125 0.203125 0.734375 0.203125q0.4375 0 0.65625 -0.15625q0.21875 -0.171875 0.21875 -0.4375zm7.494629 -1.203125q0 1.296875 -0.59375 2.09375q-0.578125 0.78125 -1.59375 0.78125q-0.84375 0 -1.375 -0.59375l0 2.65625l-1.5 0l0 -7.796875l1.390625 0l0.0625 0.546875q0.546875 -0.65625 1.421875 -0.65625q1.03125 0 1.609375 0.78125q0.578125 0.765625 0.578125 2.109375l0 0.078125zm-1.5 -0.109375q0 -0.78125 -0.28125 -1.203125q-0.28125 -0.4375 -0.8125 -0.4375q-0.703125 0 -0.96875 0.546875l0 2.296875q0.28125 0.5625 0.984375 0.5625q1.078125 0 1.078125 -1.765625zm5.030609 2.984375q-1.234375 0 -2.015625 -0.765625q-0.78125 -0.765625 -0.78125 -2.015625l0 -0.15625q0 -0.84375 0.328125 -1.515625q0.328125 -0.671875 0.921875 -1.03125q0.609375 -0.359375 1.375 -0.359375q1.15625 0 1.8125 0.734375q0.671875 0.71875 0.671875 2.0625l0 0.609375l-3.578125 0q0.0625 0.546875 0.421875 0.890625q0.375 0.328125 0.9375 0.328125q0.875 0 1.359375 -0.625l0.734375 0.828125q-0.328125 0.46875 -0.90625 0.75q-0.578125 0.265625 -1.28125 0.265625zm-0.171875 -4.625q-0.453125 0 -0.734375 0.3125q-0.265625 0.296875 -0.34375 0.859375l2.078125 0l0 -0.125q0 -0.5 -0.265625 -0.765625q-0.265625 -0.28125 -0.734375 -0.28125zm5.6818542 3.40625q0.40625 0 0.671875 -0.21875q0.265625 -0.234375 0.265625 -0.625l1.421875 0q-0.015625 0.578125 -0.328125 1.0625q-0.296875 0.46875 -0.828125 0.734375q-0.53125 0.265625 -1.1875 0.265625q-1.203125 0 -1.90625 -0.765625q-0.6875 -0.78125 -0.6875 -2.125l0 -0.09375q0 -1.3125 0.6875 -2.078125q0.703125 -0.78125 1.90625 -0.78125q1.046875 0 1.6875 0.609375q0.640625 0.59375 0.65625 1.59375l-1.421875 0q0 -0.4375 -0.265625 -0.703125q-0.265625 -0.28125 -0.6875 -0.28125q-0.515625 0 -0.796875 0.390625q-0.265625 0.375 -0.265625 1.234375l0 0.15625q0 0.859375 0.265625 1.25q0.265625 0.375 0.8125 0.375zm4.807068 1.109375l-1.515625 0l0 -5.625l1.515625 0l0 5.625zm-1.609375 -7.09375q0 -0.328125 0.21875 -0.546875q0.234375 -0.21875 0.625 -0.21875q0.390625 0 0.609375 0.21875q0.234375 0.21875 0.234375 0.546875q0 0.34375 -0.234375 0.5625q-0.21875 0.21875 -0.609375 0.21875q-0.375 0 -0.609375 -0.21875q-0.234375 -0.21875 -0.234375 -0.5625zm4.2472534 1.46875l0.046875 0.625q0.609375 -0.734375 1.625 -0.734375q1.078125 0 1.484375 0.859375q0.59375 -0.859375 1.703125 -0.859375q0.90625 0 1.34375 0.53125q0.453125 0.53125 0.453125 1.609375l0 3.59375l-1.5 0l0 -3.59375q0 -0.46875 -0.1875 -0.6875q-0.1875 -0.234375 -0.65625 -0.234375q-0.6875 0 -0.9375 0.65625l0 3.859375l-1.5 0l0 -3.578125q0 -0.5 -0.203125 -0.71875q-0.1875 -0.21875 -0.65625 -0.21875q-0.625 0 -0.921875 0.53125l0 3.984375l-1.5 0l0 -5.625l1.40625 0zm10.412842 5.734375q-1.234375 0 -2.015625 -0.765625q-0.78125 -0.765625 -0.78125 -2.015625l0 -0.15625q0 -0.84375 0.328125 -1.515625q0.328125 -0.671875 0.921875 -1.03125q0.609375 -0.359375 1.375 -0.359375q1.15625 0 1.8125 0.734375q0.671875 0.71875 0.671875 2.0625l0 0.609375l-3.578125 0q0.0625 0.546875 0.421875 0.890625q0.375 0.328125 0.9375 0.328125q0.875 0 1.359375 -0.625l0.734375 0.828125q-0.328125 0.46875 -0.90625 0.75q-0.578125 0.265625 -1.28125 0.265625zm-0.171875 -4.625q-0.453125 0 -0.734375 0.3125q-0.265625 0.296875 -0.34375 0.859375l2.078125 0l0 -0.125q0 -0.5 -0.265625 -0.765625q-0.265625 -0.28125 -0.734375 -0.28125zm4.72876 -1.109375l0.046875 0.640625q0.59375 -0.75 1.609375 -0.75q0.890625 0 1.328125 0.53125q0.4375 0.515625 0.453125 1.5625l0 3.640625l-1.5 0l0 -3.59375q0 -0.484375 -0.21875 -0.703125q-0.203125 -0.21875 -0.6875 -0.21875q-0.625 0 -0.953125 0.546875l0 3.96875l-1.5 0l0 -5.625l1.421875 0z" fill-rule="nonzero"/><path fill="#93c47d" d="m446.80804 64.24141l0 -25.699203l22.0224 25.699203z" fill-rule="evenodd"/><path stroke="#000000" stroke-width="1.0" stroke-linejoin="round" stroke-linecap="butt" d="m446.80804 64.24141l0 -25.699203l22.0224 25.699203z" fill-rule="evenodd"/><path fill="#cccccc" d="m470.13098 33.584488l0 30.656921l-24.623474 -30.656921z" fill-rule="evenodd"/><path fill="#f9cb9c" d="m500.5467 37.703243l90.690674 0l0 129.60895l-90.690674 0z" fill-rule="evenodd"/><path stroke="#000000" stroke-width="1.0" stroke-linejoin="round" stroke-linecap="butt" d="m500.5467 37.703243l90.690674 0l0 129.60895l-90.690674 0z" fill-rule="evenodd"/><path fill="#000000" d="m532.46985 86.74773l-1.515625 0l0 -8.0l1.515625 0l0 8.0zm3.8253174 0.109375q-1.234375 0 -2.015625 -0.765625q-0.78125 -0.765625 -0.78125 -2.015625l0 -0.15625q0 -0.84375 0.328125 -1.515625q0.328125 -0.671875 0.921875 -1.03125q0.609375 -0.359375 1.375 -0.359375q1.15625 0 1.8125 0.734375q0.671875 0.71875 0.671875 2.0625l0 0.609375l-3.578125 0q0.0625 0.546875 0.421875 0.890625q0.375 0.328125 0.9375 0.328125q0.875 0 1.359375 -0.625l0.734375 0.828125q-0.328125 0.46875 -0.90625 0.75q-0.578125 0.265625 -1.28125 0.265625zm-0.171875 -4.625q-0.453125 0 -0.734375 0.3125q-0.265625 0.296875 -0.34375 0.859375l2.078125 0l0 -0.125q0 -0.5 -0.265625 -0.765625q-0.265625 -0.28125 -0.734375 -0.28125zm5.379822 2.671875l1.046875 -3.78125l1.5625 0l-1.890625 5.625l-1.4375 0l-1.90625 -5.625l1.578125 0l1.046875 3.78125zm5.802002 1.953125q-1.234375 0 -2.015625 -0.765625q-0.78125 -0.765625 -0.78125 -2.015625l0 -0.15625q0 -0.84375 0.328125 -1.515625q0.328125 -0.671875 0.921875 -1.03125q0.609375 -0.359375 1.375 -0.359375q1.15625 0 1.8125 0.734375q0.671875 0.71875 0.671875 2.0625l0 0.609375l-3.578125 0q0.0625 0.546875 0.421875 0.890625q0.375 0.328125 0.9375 0.328125q0.875 0 1.359375 -0.625l0.734375 0.828125q-0.328125 0.46875 -0.90625 0.75q-0.578125 0.265625 -1.28125 0.265625zm-0.171875 -4.625q-0.453125 0 -0.734375 0.3125q-0.265625 0.296875 -0.34375 0.859375l2.078125 0l0 -0.125q0 -0.5 -0.265625 -0.765625q-0.265625 -0.28125 -0.734375 -0.28125zm4.931885 4.515625l-1.515625 0l0 -8.0l1.515625 0l0 8.0zm7.479004 0l-1.5 0l0 -5.796875l-1.796875 0.5625l0 -1.234375l3.125 -1.125l0.171875 0l0 7.59375z" fill-rule="nonzero"/><path fill="#000000" d="m519.81885 96.9821q0 1.359375 -0.578125 2.125q-0.578125 0.75 -1.625 0.75q-0.90625 0 -1.453125 -0.703125l-0.0625 0.59375l-1.359375 0l0 -8.0l1.5 0l0 2.875q0.53125 -0.609375 1.375 -0.609375q1.03125 0 1.609375 0.765625q0.59375 0.75 0.59375 2.125l0 0.078125zm-1.515625 -0.109375q0 -0.84375 -0.265625 -1.234375q-0.265625 -0.40625 -0.8125 -0.40625q-0.703125 0 -0.984375 0.59375l0 2.21875q0.28125 0.59375 1.0 0.59375q0.734375 0 0.953125 -0.71875q0.109375 -0.34375 0.109375 -1.046875zm5.8118286 2.296875q-0.5625 0.6875 -1.546875 0.6875q-0.90625 0 -1.390625 -0.515625q-0.46875 -0.53125 -0.46875 -1.53125l0 -3.6875l1.5 0l0 3.625q0 0.890625 0.796875 0.890625q0.765625 0 1.046875 -0.53125l0 -3.984375l1.515625 0l0 5.625l-1.421875 0l-0.03125 -0.578125zm4.1816406 0.578125l-1.515625 0l0 -8.0l1.515625 0l0 8.0zm3.2785034 -2.265625l-0.546875 0.546875l0 1.71875l-1.5 0l0 -8.0l1.5 0l0 4.4375l0.296875 -0.375l1.4375 -1.6875l1.8125 0l-2.046875 2.34375l2.21875 3.28125l-1.734375 0l-1.4375 -2.265625zm6.567383 -0.375l-2.921875 0l0 -1.203125l2.921875 0l0 1.203125zm4.1157227 -0.125l-1.25 0l0 2.765625l-1.5625 0l0 -7.578125l2.8125 0q1.34375 0 2.078125 0.609375q0.734375 0.59375 0.734375 1.6875q0 0.765625 -0.34375 1.296875q-0.328125 0.515625 -1.015625 0.8125l1.640625 3.09375l0 0.078125l-1.671875 0l-1.421875 -2.765625zm-1.25 -1.265625l1.265625 0q0.578125 0 0.90625 -0.296875q0.328125 -0.3125 0.328125 -0.828125q0 -0.546875 -0.3125 -0.84375q-0.296875 -0.3125 -0.9375 -0.3125l-1.25 0l0 2.28125zm11.410034 4.03125l-1.5625 0l-3.046875 -4.984375l0 4.984375l-1.5625 0l0 -7.578125l1.5625 0l3.046875 5.0l0 -5.0l1.5625 0l0 7.578125zm5.7269897 -1.5625l-2.734375 0l-0.515625 1.5625l-1.671875 0l2.828125 -7.578125l1.4375 0l2.84375 7.578125l-1.65625 0l-0.53125 -1.5625zm-2.3125 -1.265625l1.890625 0l-0.953125 -2.828125l-0.9375 2.828125zm8.15448 1.265625q0 -0.265625 -0.28125 -0.421875q-0.265625 -0.171875 -0.859375 -0.296875q-2.015625 -0.40625 -2.015625 -1.703125q0 -0.75 0.625 -1.25q0.625 -0.5 1.625 -0.5q1.0625 0 1.703125 0.515625q0.65625 0.5 0.65625 1.296875l-1.515625 0q0 -0.3125 -0.203125 -0.515625q-0.203125 -0.21875 -0.65625 -0.21875q-0.375 0 -0.578125 0.171875q-0.203125 0.171875 -0.203125 0.4375q0 0.25 0.234375 0.40625q0.234375 0.140625 0.796875 0.265625q0.5625 0.109375 0.9375 0.25q1.203125 0.4375 1.203125 1.5q0 0.78125 -0.671875 1.265625q-0.65625 0.46875 -1.703125 0.46875q-0.703125 0 -1.25 -0.25q-0.546875 -0.265625 -0.859375 -0.703125q-0.3125 -0.4375 -0.3125 -0.953125l1.421875 0q0.015625 0.40625 0.296875 0.625q0.28125 0.203125 0.734375 0.203125q0.4375 0 0.65625 -0.15625q0.21875 -0.171875 0.21875 -0.4375zm5.025879 1.671875q-1.234375 0 -2.015625 -0.765625q-0.78125 -0.765625 -0.78125 -2.015625l0 -0.15625q0 -0.84375 0.328125 -1.515625q0.328125 -0.671875 0.921875 -1.03125q0.609375 -0.359375 1.375 -0.359375q1.15625 0 1.8125 0.734375q0.671875 0.71875 0.671875 2.0625l0 0.609375l-3.578125 0q0.0625 0.546875 0.421875 0.890625q0.375 0.328125 0.9375 0.328125q0.875 0 1.359375 -0.625l0.734375 0.828125q-0.328125 0.46875 -0.90625 0.75q-0.578125 0.265625 -1.28125 0.265625zm-0.171875 -4.625q-0.453125 0 -0.734375 0.3125q-0.265625 0.296875 -0.34375 0.859375l2.078125 0l0 -0.125q0 -0.5 -0.265625 -0.765625q-0.265625 -0.28125 -0.734375 -0.28125zm3.1037598 1.65625q0 -1.328125 0.59375 -2.09375q0.59375 -0.78125 1.625 -0.78125q0.890625 0 1.4375 0.6875l0.09375 -0.578125l1.328125 0l0 7.796875l-1.515625 0l0 -2.65625q-0.515625 0.59375 -1.359375 0.59375q-1.0 0 -1.609375 -0.78125q-0.59375 -0.78125 -0.59375 -2.1875zm1.5 0.109375q0 0.796875 0.28125 1.21875q0.296875 0.421875 0.796875 0.421875q0.703125 0 0.984375 -0.546875l0 -2.328125q-0.28125 -0.53125 -0.96875 -0.53125q-0.515625 0 -0.8125 0.421875q-0.28125 0.421875 -0.28125 1.34375z" fill-rule="nonzero"/><path fill="#000000" d="m530.8345 109.6696q0 -1.1875 0.3125 -2.265625q0.328125 -1.078125 0.9375 -1.90625q0.625 -0.828125 1.34375 -1.15625l0.296875 0.8125q-0.765625 0.5625 -1.1875 1.734375q-0.421875 1.171875 -0.421875 2.75l0 0.15625q0 1.578125 0.421875 2.765625q0.421875 1.171875 1.1875 1.765625l-0.296875 0.796875q-0.703125 -0.328125 -1.3125 -1.140625q-0.609375 -0.796875 -0.9375 -1.84375q-0.3125 -1.046875 -0.34375 -2.1875l0 -0.28125zm6.944275 3.078125q-0.109375 -0.203125 -0.15625 -0.5q-0.546875 0.609375 -1.421875 0.609375q-0.828125 0 -1.375 -0.484375q-0.53125 -0.484375 -0.53125 -1.203125q0 -0.90625 0.65625 -1.375q0.671875 -0.484375 1.921875 -0.484375l0.6875 0l0 -0.328125q0 -0.390625 -0.203125 -0.625q-0.203125 -0.234375 -0.625 -0.234375q-0.375 0 -0.59375 0.1875q-0.21875 0.1875 -0.21875 0.5l-1.5 0q0 -0.484375 0.296875 -0.90625q0.296875 -0.421875 0.84375 -0.65625q0.5625 -0.234375 1.25 -0.234375q1.03125 0 1.640625 0.53125q0.625 0.515625 0.625 1.46875l0 2.4375q0 0.796875 0.21875 1.203125l0 0.09375l-1.515625 0zm-1.25 -1.046875q0.328125 0 0.609375 -0.140625q0.28125 -0.15625 0.421875 -0.40625l0 -0.96875l-0.5625 0q-1.125 0 -1.203125 0.78125l0 0.09375q0 0.28125 0.1875 0.46875q0.203125 0.171875 0.546875 0.171875zm6.744385 -0.515625q0 -0.265625 -0.28125 -0.421875q-0.265625 -0.171875 -0.859375 -0.296875q-2.015625 -0.40625 -2.015625 -1.703125q0 -0.75 0.625 -1.25q0.625 -0.5 1.625 -0.5q1.0625 0 1.703125 0.515625q0.65625 0.5 0.65625 1.296875l-1.515625 0q0 -0.3125 -0.203125 -0.515625q-0.203125 -0.21875 -0.65625 -0.21875q-0.375 0 -0.578125 0.171875q-0.203125 0.171875 -0.203125 0.4375q0 0.25 0.234375 0.40625q0.234375 0.140625 0.796875 0.265625q0.5625 0.109375 0.9375 0.25q1.203125 0.4375 1.203125 1.5q0 0.78125 -0.671875 1.265625q-0.65625 0.46875 -1.703125 0.46875q-0.703125 0 -1.25 -0.25q-0.546875 -0.265625 -0.859375 -0.703125q-0.3125 -0.4375 -0.3125 -0.953125l1.421875 0q0.015625 0.40625 0.296875 0.625q0.28125 0.203125 0.734375 0.203125q0.4375 0 0.65625 -0.15625q0.21875 -0.171875 0.21875 -0.4375zm5.479065 0q0 -0.265625 -0.28125 -0.421875q-0.265625 -0.171875 -0.859375 -0.296875q-2.015625 -0.40625 -2.015625 -1.703125q0 -0.75 0.625 -1.25q0.625 -0.5 1.625 -0.5q1.0625 0 1.703125 0.515625q0.65625 0.5 0.65625 1.296875l-1.515625 0q0 -0.3125 -0.203125 -0.515625q-0.203125 -0.21875 -0.65625 -0.21875q-0.375 0 -0.578125 0.171875q-0.203125 0.171875 -0.203125 0.4375q0 0.25 0.234375 0.40625q0.234375 0.140625 0.796875 0.265625q0.5625 0.109375 0.9375 0.25q1.203125 0.4375 1.203125 1.5q0 0.78125 -0.671875 1.265625q-0.65625 0.46875 -1.703125 0.46875q-0.703125 0 -1.25 -0.25q-0.546875 -0.265625 -0.859375 -0.703125q-0.3125 -0.4375 -0.3125 -0.953125l1.421875 0q0.015625 0.40625 0.296875 0.625q0.28125 0.203125 0.734375 0.203125q0.4375 0 0.65625 -0.15625q0.21875 -0.171875 0.21875 -0.4375zm5.697754 1.5625q-0.109375 -0.203125 -0.15625 -0.5q-0.546875 0.609375 -1.421875 0.609375q-0.828125 0 -1.375 -0.484375q-0.53125 -0.484375 -0.53125 -1.203125q0 -0.90625 0.65625 -1.375q0.671875 -0.484375 1.921875 -0.484375l0.6875 0l0 -0.328125q0 -0.390625 -0.203125 -0.625q-0.203125 -0.234375 -0.625 -0.234375q-0.375 0 -0.59375 0.1875q-0.21875 0.1875 -0.21875 0.5l-1.5 0q0 -0.484375 0.296875 -0.90625q0.296875 -0.421875 0.84375 -0.65625q0.5625 -0.234375 1.25 -0.234375q1.03125 0 1.640625 0.53125q0.625 0.515625 0.625 1.46875l0 2.4375q0 0.796875 0.21875 1.203125l0 0.09375l-1.515625 0zm-1.25 -1.046875q0.328125 0 0.609375 -0.140625q0.28125 -0.15625 0.421875 -0.40625l0 -0.96875l-0.5625 0q-1.125 0 -1.203125 0.78125l0 0.09375q0 0.28125 0.1875 0.46875q0.203125 0.171875 0.546875 0.171875zm5.713135 -1.078125l1.046875 -3.5l1.609375 0l-2.265625 6.5l-0.125 0.296875q-0.5 1.109375 -1.65625 1.109375q-0.328125 0 -0.671875 -0.109375l0 -1.140625l0.234375 0.015625q0.421875 0 0.625 -0.140625q0.21875 -0.125 0.34375 -0.421875l0.171875 -0.46875l-1.96875 -5.640625l1.625 0l1.03125 3.5z" fill-rule="nonzero"/><path fill="#000000" d="m523.3327 120.12273l0.046875 0.625q0.609375 -0.734375 1.625 -0.734375q1.078125 0 1.484375 0.859375q0.59375 -0.859375 1.703125 -0.859375q0.90625 0 1.34375 0.53125q0.453125 0.53125 0.453125 1.609375l0 3.59375l-1.5 0l0 -3.59375q0 -0.46875 -0.1875 -0.6875q-0.1875 -0.234375 -0.65625 -0.234375q-0.6875 0 -0.9375 0.65625l0 3.859375l-1.5 0l0 -3.578125q0 -0.5 -0.203125 -0.71875q-0.1875 -0.21875 -0.65625 -0.21875q-0.625 0 -0.921875 0.53125l0 3.984375l-1.5 0l0 -5.625l1.40625 0zm10.412842 5.734375q-1.234375 0 -2.015625 -0.765625q-0.78125 -0.765625 -0.78125 -2.015625l0 -0.15625q0 -0.84375 0.328125 -1.515625q0.328125 -0.671875 0.921875 -1.03125q0.609375 -0.359375 1.375 -0.359375q1.15625 0 1.8125 0.734375q0.671875 0.71875 0.671875 2.0625l0 0.609375l-3.578125 0q0.0625 0.546875 0.421875 0.890625q0.375 0.328125 0.9375 0.328125q0.875 0 1.359375 -0.625l0.734375 0.828125q-0.328125 0.46875 -0.90625 0.75q-0.578125 0.265625 -1.28125 0.265625zm-0.171875 -4.625q-0.453125 0 -0.734375 0.3125q-0.265625 0.296875 -0.34375 0.859375l2.078125 0l0 -0.125q0 -0.5 -0.265625 -0.765625q-0.265625 -0.28125 -0.734375 -0.28125zm5.13501 -2.5l0 1.390625l0.96875 0l0 1.09375l-0.96875 0l0 2.8125q0 0.3125 0.125 0.453125q0.125 0.125 0.453125 0.125q0.25 0 0.4375 -0.03125l0 1.140625q-0.4375 0.140625 -0.90625 0.140625q-1.578125 0 -1.609375 -1.609375l0 -3.03125l-0.828125 0l0 -1.09375l0.828125 0l0 -1.390625l1.5 0zm5.069397 7.015625q-0.109375 -0.203125 -0.15625 -0.5q-0.546875 0.609375 -1.421875 0.609375q-0.828125 0 -1.375 -0.484375q-0.53125 -0.484375 -0.53125 -1.203125q0 -0.90625 0.65625 -1.375q0.671875 -0.484375 1.921875 -0.484375l0.6875 0l0 -0.328125q0 -0.390625 -0.203125 -0.625q-0.203125 -0.234375 -0.625 -0.234375q-0.375 0 -0.59375 0.1875q-0.21875 0.1875 -0.21875 0.5l-1.5 0q0 -0.484375 0.296875 -0.90625q0.296875 -0.421875 0.84375 -0.65625q0.5625 -0.234375 1.25 -0.234375q1.03125 0 1.640625 0.53125q0.625 0.515625 0.625 1.46875l0 2.4375q0 0.796875 0.21875 1.203125l0 0.09375l-1.515625 0zm-1.25 -1.046875q0.328125 0 0.609375 -0.140625q0.28125 -0.15625 0.421875 -0.40625l0 -0.96875l-0.5625 0q-1.125 0 -1.203125 0.78125l0 0.09375q0 0.28125 0.1875 0.46875q0.203125 0.171875 0.546875 0.171875zm3.4631348 -1.8125q0 -1.3125 0.59375 -2.09375q0.59375 -0.78125 1.609375 -0.78125q0.828125 0 1.359375 0.609375l0 -2.875l1.515625 0l0 8.0l-1.359375 0l-0.078125 -0.59375q-0.5625 0.703125 -1.4375 0.703125q-1.0 0 -1.609375 -0.78125q-0.59375 -0.796875 -0.59375 -2.1875zm1.5 0.109375q0 0.796875 0.28125 1.21875q0.28125 0.421875 0.796875 0.421875q0.703125 0 0.984375 -0.59375l0 -2.21875q-0.28125 -0.59375 -0.96875 -0.59375q-1.09375 0 -1.09375 1.765625zm8.004578 2.75q-0.109375 -0.203125 -0.15625 -0.5q-0.546875 0.609375 -1.421875 0.609375q-0.828125 0 -1.375 -0.484375q-0.53125 -0.484375 -0.53125 -1.203125q0 -0.90625 0.65625 -1.375q0.671875 -0.484375 1.921875 -0.484375l0.6875 0l0 -0.328125q0 -0.390625 -0.203125 -0.625q-0.203125 -0.234375 -0.625 -0.234375q-0.375 0 -0.59375 0.1875q-0.21875 0.1875 -0.21875 0.5l-1.5 0q0 -0.484375 0.296875 -0.90625q0.296875 -0.421875 0.84375 -0.65625q0.5625 -0.234375 1.25 -0.234375q1.03125 0 1.640625 0.53125q0.625 0.515625 0.625 1.46875l0 2.4375q0 0.796875 0.21875 1.203125l0 0.09375l-1.515625 0zm-1.25 -1.046875q0.328125 0 0.609375 -0.140625q0.28125 -0.15625 0.421875 -0.40625l0 -0.96875l-0.5625 0q-1.125 0 -1.203125 0.78125l0 0.09375q0 0.28125 0.1875 0.46875q0.203125 0.171875 0.546875 0.171875zm5.494385 -5.96875l0 1.390625l0.96875 0l0 1.09375l-0.96875 0l0 2.8125q0 0.3125 0.125 0.453125q0.125 0.125 0.453125 0.125q0.25 0 0.4375 -0.03125l0 1.140625q-0.4375 0.140625 -0.90625 0.140625q-1.578125 0 -1.609375 -1.609375l0 -3.03125l-0.828125 0l0 -1.09375l0.828125 0l0 -1.390625l1.5 0zm5.069397 7.015625q-0.109375 -0.203125 -0.15625 -0.5q-0.546875 0.609375 -1.421875 0.609375q-0.828125 0 -1.375 -0.484375q-0.53125 -0.484375 -0.53125 -1.203125q0 -0.90625 0.65625 -1.375q0.671875 -0.484375 1.921875 -0.484375l0.6875 0l0 -0.328125q0 -0.390625 -0.203125 -0.625q-0.203125 -0.234375 -0.625 -0.234375q-0.375 0 -0.59375 0.1875q-0.21875 0.1875 -0.21875 0.5l-1.5 0q0 -0.484375 0.296875 -0.90625q0.296875 -0.421875 0.84375 -0.65625q0.5625 -0.234375 1.25 -0.234375q1.03125 0 1.640625 0.53125q0.625 0.515625 0.625 1.46875l0 2.4375q0 0.796875 0.21875 1.203125l0 0.09375l-1.515625 0zm-1.25 -1.046875q0.328125 0 0.609375 -0.140625q0.28125 -0.15625 0.421875 -0.40625l0 -0.96875l-0.5625 0q-1.125 0 -1.203125 0.78125l0 0.09375q0 0.28125 0.1875 0.46875q0.203125 0.171875 0.546875 0.171875zm6.291321 -1.90625q0 1.171875 -0.34375 2.265625q-0.328125 1.078125 -0.96875 1.90625q-0.640625 0.84375 -1.359375 1.15625l-0.296875 -0.796875q0.75 -0.5625 1.171875 -1.71875q0.421875 -1.171875 0.4375 -2.671875l0 -0.28125q0 -1.546875 -0.421875 -2.734375q-0.421875 -1.1875 -1.1875 -1.78125l0.296875 -0.796875q0.703125 0.3125 1.328125 1.125q0.640625 0.796875 0.984375 1.875q0.34375 1.0625 0.359375 2.21875l0 0.234375z" fill-rule="nonzero"/><path fill="#fce5cd" d="m569.21497 64.64188l0 -25.699203l22.0224 25.699203z" fill-rule="evenodd"/><path stroke="#000000" stroke-width="1.0" stroke-linejoin="round" stroke-linecap="butt" d="m569.21497 64.64188l0 -25.699203l22.0224 25.699203z" fill-rule="evenodd"/><path fill="#cccccc" d="m592.5379 36.463814l0 30.656921l-24.623474 -30.656921z" fill-rule="evenodd"/><path fill="#000000" fill-opacity="0.0" d="m14.933299 76.63488l138.64566 0l0 50.456696l-138.64566 0z" fill-rule="evenodd"/><path fill="#000000" d="m27.730173 90.28925l4.343752 10.828125l4.328125 -10.828125l2.265625 0l0 13.265625l-1.75 0l0 -5.171875l0.171875 -5.5625l-4.359375 10.734375l-1.3437519 0l-4.34375 -10.71875l0.171875 5.546875l0 5.171875l-1.734375 0l0 -13.265625l2.25 0zm17.850283 13.453125q-2.0 0 -3.265625 -1.3125q-1.25 -1.328125 -1.25 -3.53125l0 -0.3125q0 -1.46875 0.5625 -2.609375q0.5625 -1.15625 1.5625 -1.796875q1.015625 -0.65625 2.1875 -0.65625q1.921875 0 2.984375 1.265625q1.0625 1.265625 1.0625 3.625l0 0.6875l-6.671875 0q0.03125 1.46875 0.84375 2.375q0.828125 0.890625 2.078125 0.890625q0.890625 0 1.515625 -0.359375q0.625 -0.375 1.078125 -0.96875l1.03125 0.796875q-1.234375 1.90625 -3.71875 1.90625zm-0.203125 -8.84375q-1.015625 0 -1.71875 0.75q-0.6875 0.734375 -0.84375 2.078125l4.9375 0l0 -0.125q-0.078125 -1.28125 -0.703125 -1.984375q-0.609375 -0.71875 -1.671875 -0.71875zm8.290054 -3.59375l0 2.390625l1.84375 0l0 1.3125l-1.84375 0l0 6.109375q0 0.59375 0.234375 0.890625q0.25 0.296875 0.84375 0.296875q0.296875 0 0.8125 -0.109375l0 1.359375q-0.671875 0.1875 -1.296875 0.1875q-1.125 0 -1.703125 -0.6875q-0.578125 -0.6875 -0.578125 -1.9375l0 -6.109375l-1.796875 0l0 -1.3125l1.796875 0l0 -2.390625l1.6875 0zm9.891129 12.25q-0.140625 -0.296875 -0.234375 -1.03125q-1.171875 1.21875 -2.8125 1.21875q-1.453125 0 -2.390625 -0.828125q-0.921875 -0.828125 -0.921875 -2.09375q0 -1.53125 1.15625 -2.375q1.171875 -0.859375 3.296875 -0.859375l1.640625 0l0 -0.78125q0 -0.890625 -0.53125 -1.40625q-0.515625 -0.53125 -1.546875 -0.53125q-0.90625 0 -1.515625 0.46875q-0.609375 0.453125 -0.609375 1.09375l-1.703125 0q0 -0.734375 0.515625 -1.421875q0.53125 -0.6875 1.421875 -1.078125q0.90625 -0.40625 1.984375 -0.40625q1.703125 0 2.671875 0.859375q0.9687462 0.84375 0.9999962 2.328125l0 4.53125q0 1.359375 0.34375 2.171875l0 0.140625l-1.7656212 0zm-2.796875 -1.28125q0.796875 0 1.5 -0.40625q0.71875 -0.421875 1.03125 -1.078125l0 -2.015625l-1.3125 0q-3.109375 0 -3.109375 1.8125q0 0.796875 0.53125 1.25q0.53125 0.4375 1.359375 0.4375zm6.444851 -3.734375q0 -2.265625 1.078125 -3.640625q1.078125 -1.375 2.8125 -1.375q1.734375 0 2.75 1.171875l0 -5.140625l1.6875 0l0 14.0l-1.546875 0l-0.09375 -1.0625q-1.0 1.25 -2.8125 1.25q-1.703125 0 -2.796875 -1.40625q-1.078125 -1.40625 -1.078125 -3.65625l0 -0.140625zm1.6875 0.203125q0 1.671875 0.6875 2.625q0.703125 0.9375 1.921875 0.9375q1.609375 0 2.34375 -1.4375l0 -4.53125q-0.765625 -1.390625 -2.328125 -1.390625q-1.234375 0 -1.9375 0.953125q-0.6875 0.953125 -0.6875 2.84375zm15.333969 4.8125q-0.140625 -0.296875 -0.234375 -1.03125q-1.171875 1.21875 -2.8125 1.21875q-1.453125 0 -2.390625 -0.828125q-0.921875 -0.828125 -0.921875 -2.09375q0 -1.53125 1.15625 -2.375q1.171875 -0.859375 3.296875 -0.859375l1.640625 0l0 -0.78125q0 -0.890625 -0.53125 -1.40625q-0.515625 -0.53125 -1.546875 -0.53125q-0.90625 0 -1.515625 0.46875q-0.609375 0.453125 -0.609375 1.09375l-1.703125 0q0 -0.734375 0.515625 -1.421875q0.53125 -0.6875 1.421875 -1.078125q0.90625 -0.40625 1.984375 -0.40625q1.703125 0 2.671875 0.859375q0.96875 0.84375 1.0 2.328125l0 4.53125q0 1.359375 0.34375 2.171875l0 0.140625l-1.765625 0zm-2.796875 -1.28125q0.796875 0 1.5 -0.40625q0.71875 -0.421875 1.03125 -1.078125l0 -2.015625l-1.3125 0q-3.109375 0 -3.109375 1.8125q0 0.796875 0.53125 1.25q0.53125 0.4375 1.359375 0.4375zm9.14798 -10.96875l0 2.390625l1.84375 0l0 1.3125l-1.84375 0l0 6.109375q0 0.59375 0.234375 0.890625q0.25 0.296875 0.84375 0.296875q0.296875 0 0.8125 -0.109375l0 1.359375q-0.671875 0.1875 -1.296875 0.1875q-1.125 0 -1.703125 -0.6875q-0.578125 -0.6875 -0.578125 -1.9375l0 -6.109375l-1.796875 0l0 -1.3125l1.796875 0l0 -2.390625l1.6875 0zm9.891129 12.25q-0.140625 -0.296875 -0.234375 -1.03125q-1.171875 1.21875 -2.8125 1.21875q-1.453125 0 -2.390625 -0.828125q-0.921875 -0.828125 -0.921875 -2.09375q0 -1.53125 1.15625 -2.375q1.171875 -0.859375 3.296875 -0.859375l1.640625 0l0 -0.78125q0 -0.890625 -0.53125 -1.40625q-0.515625 -0.53125 -1.546875 -0.53125q-0.90625 0 -1.515625 0.46875q-0.609375 0.453125 -0.609375 1.09375l-1.703125 0q0 -0.734375 0.515625 -1.421875q0.53125 -0.6875 1.421875 -1.078125q0.90625 -0.40625 1.984375 -0.40625q1.703125 0 2.671875 0.859375q0.96875 0.84375 1.0 2.328125l0 4.53125q0 1.359375 0.34375 2.171875l0 0.140625l-1.765625 0zm-2.796875 -1.28125q0.796875 0 1.5 -0.40625q0.71875 -0.421875 1.03125 -1.078125l0 -2.015625l-1.3125 0q-3.109375 0 -3.109375 1.8125q0 0.796875 0.53125 1.25q0.53125 0.4375 1.359375 0.4375z" fill-rule="nonzero"/><path fill="#000000" fill-opacity="0.0" d="m14.933299 236.56612l138.64566 0l0 50.45671l-138.64566 0z" fill-rule="evenodd"/><path fill="#000000" d="m32.792675 260.01736l-5.546877 0l-1.25 3.46875l-1.8125 0l5.0625 -13.265625l1.53125 0l5.078127 13.265625l-1.796875 0l-1.265625 -3.46875zm-5.031252 -1.4375l4.515627 0l-2.265627 -6.203125l-2.25 6.203125zm15.35779 2.296875q0 -0.6875 -0.515625 -1.0625q-0.515625 -0.375 -1.796875 -0.640625q-1.28125 -0.28125 -2.03125 -0.65625q-0.75 -0.390625 -1.109375 -0.921875q-0.359375 -0.53125 -0.359375 -1.265625q0 -1.203125 1.015625 -2.03125q1.03125 -0.84375 2.625 -0.84375q1.671875 0 2.71875 0.859375q1.046875 0.859375 1.046875 2.21875l-1.6875 0q0 -0.703125 -0.59375 -1.203125q-0.59375 -0.5 -1.484375 -0.5q-0.921875 0 -1.4375 0.40625q-0.515625 0.390625 -0.515625 1.046875q0 0.609375 0.484375 0.921875q0.484375 0.3125 1.734375 0.59375q1.265625 0.28125 2.046875 0.671875q0.78125 0.390625 1.15625 0.9375q0.390625 0.546875 0.390625 1.34375q0 1.328125 -1.0625 2.125q-1.046875 0.796875 -2.734375 0.796875q-1.1875 0 -2.109375 -0.421875q-0.90625 -0.421875 -1.421875 -1.171875q-0.515625 -0.75 -0.515625 -1.625l1.6875 0q0.046875 0.84375 0.671875 1.34375q0.640625 0.5 1.6875 0.5q0.953125 0 1.53125 -0.390625q0.578125 -0.390625 0.578125 -1.03125zm9.619629 0q0 -0.6875 -0.515625 -1.0625q-0.515625 -0.375 -1.796875 -0.640625q-1.28125 -0.28125 -2.03125 -0.65625q-0.75 -0.390625 -1.109375 -0.921875q-0.359375 -0.53125 -0.359375 -1.265625q0 -1.203125 1.015625 -2.03125q1.03125 -0.84375 2.625 -0.84375q1.671875 0 2.71875 0.859375q1.046875 0.859375 1.046875 2.21875l-1.6875 0q0 -0.703125 -0.59375 -1.203125q-0.59375 -0.5 -1.484375 -0.5q-0.921875 0 -1.4375 0.40625q-0.515625 0.390625 -0.515625 1.046875q0 0.609375 0.484375 0.921875q0.484375 0.3125 1.734375 0.59375q1.265625 0.28125 2.046875 0.671875q0.78125 0.390625 1.15625 0.9375q0.390625 0.546875 0.390625 1.34375q0 1.328125 -1.0625 2.125q-1.046875 0.796875 -2.734375 0.796875q-1.1875 0 -2.109375 -0.421875q-0.90625 -0.421875 -1.421875 -1.171875q-0.515625 -0.75 -0.515625 -1.625l1.6875 0q0.046875 0.84375 0.671875 1.34375q0.640625 0.5 1.6875 0.5q0.953125 0 1.53125 -0.390625q0.578125 -0.390625 0.578125 -1.03125zm9.963379 2.609375q-0.140625 -0.296875 -0.234375 -1.03125q-1.171875 1.21875 -2.8125 1.21875q-1.453125 0 -2.390625 -0.828125q-0.921875 -0.828125 -0.921875 -2.09375q0 -1.53125 1.15625 -2.375q1.171875 -0.859375 3.296875 -0.859375l1.640625 0l0 -0.78125q0 -0.890625 -0.53125 -1.40625q-0.515625 -0.53125 -1.546875 -0.53125q-0.90625 0 -1.515625 0.46875q-0.609375 0.453125 -0.609375 1.09375l-1.703125 0q0 -0.734375 0.515625 -1.421875q0.53125 -0.6875 1.421875 -1.078125q0.90625 -0.40625 1.984375 -0.40625q1.703125 0 2.671875 0.859375q0.9687462 0.84375 0.9999962 2.328125l0 4.53125q0 1.359375 0.34375 2.171875l0 0.140625l-1.7656212 0zm-2.796875 -1.28125q0.796875 0 1.5 -0.40625q0.71875 -0.421875 1.03125 -1.078125l0 -2.015625l-1.3125 0q-3.109375 0 -3.109375 1.8125q0 0.796875 0.53125 1.25q0.53125 0.4375 1.359375 0.4375zm9.948757 -1.1875l2.296875 -7.390625l1.796875 0l-3.953125 11.375q-0.921875 2.46875 -2.921875 2.46875l-0.328125 -0.03125l-0.625 -0.125l0 -1.359375l0.453125 0.03125q0.859375 0 1.328125 -0.34375q0.484375 -0.34375 0.796875 -1.265625l0.375 -1.0l-3.515625 -9.75l1.84375 0l2.453125 7.390625zm10.492493 2.46875l0 -13.265625l3.734375 0q1.734375 0 3.0625 0.765625q1.328125 0.765625 2.046875 2.1875q0.734375 1.40625 0.734375 3.234375l0 0.84375q0 1.875 -0.71875 3.296875q-0.71875 1.40625 -2.0625 2.171875q-1.34375 0.75 -3.140625 0.765625l-3.65625 0zm1.734375 -11.828125l0 10.390625l1.84375 0q2.03125 0 3.15625 -1.25q1.125 -1.25 1.125 -3.578125l0 -0.78125q0 -2.25 -1.0625 -3.5q-1.0625 -1.265625 -3.015625 -1.28125l-2.046875 0zm16.31218 11.828125q-0.140625 -0.296875 -0.234375 -1.03125q-1.171875 1.21875 -2.8125 1.21875q-1.453125 0 -2.390625 -0.828125q-0.921875 -0.828125 -0.921875 -2.09375q0 -1.53125 1.15625 -2.375q1.171875 -0.859375 3.296875 -0.859375l1.640625 0l0 -0.78125q0 -0.890625 -0.53125 -1.40625q-0.515625 -0.53125 -1.546875 -0.53125q-0.90625 0 -1.515625 0.46875q-0.609375 0.453125 -0.609375 1.09375l-1.703125 0q0 -0.734375 0.515625 -1.421875q0.53125 -0.6875 1.421875 -1.078125q0.90625 -0.40625 1.984375 -0.40625q1.703125 0 2.671875 0.859375q0.96875 0.84375 1.0 2.328125l0 4.53125q0 1.359375 0.34375 2.171875l0 0.140625l-1.765625 0zm-2.796875 -1.28125q0.796875 0 1.5 -0.40625q0.71875 -0.421875 1.03125 -1.078125l0 -2.015625l-1.3125 0q-3.109375 0 -3.109375 1.8125q0 0.796875 0.53125 1.25q0.53125 0.4375 1.359375 0.4375zm9.14798 -10.96875l0 2.390625l1.84375 0l0 1.3125l-1.84375 0l0 6.109375q0 0.59375 0.234375 0.890625q0.25 0.296875 0.84375 0.296875q0.296875 0 0.8125 -0.109375l0 1.359375q-0.671875 0.1875 -1.296875 0.1875q-1.125 0 -1.703125 -0.6875q-0.578125 -0.6875 -0.578125 -1.9375l0 -6.109375l-1.796875 0l0 -1.3125l1.796875 0l0 -2.390625l1.6875 0zm9.891129 12.25q-0.140625 -0.296875 -0.234375 -1.03125q-1.171875 1.21875 -2.8125 1.21875q-1.453125 0 -2.390625 -0.828125q-0.921875 -0.828125 -0.921875 -2.09375q0 -1.53125 1.15625 -2.375q1.171875 -0.859375 3.296875 -0.859375l1.640625 0l0 -0.78125q0 -0.890625 -0.53125 -1.40625q-0.515625 -0.53125 -1.546875 -0.53125q-0.90625 0 -1.515625 0.46875q-0.609375 0.453125 -0.609375 1.09375l-1.703125 0q0 -0.734375 0.515625 -1.421875q0.53125 -0.6875 1.421875 -1.078125q0.90625 -0.40625 1.984375 -0.40625q1.703125 0 2.671875 0.859375q0.96875 0.84375 1.0 2.328125l0 4.53125q0 1.359375 0.34375 2.171875l0 0.140625l-1.765625 0zm-2.796875 -1.28125q0.796875 0 1.5 -0.40625q0.71875 -0.421875 1.03125 -1.078125l0 -2.015625l-1.3125 0q-3.109375 0 -3.109375 1.8125q0 0.796875 0.53125 1.25q0.53125 0.4375 1.359375 0.4375z" fill-rule="nonzero"/><path fill="#f9cb9c" d="m221.70448 247.09782l156.89592 0l0 76.21983c-78.443756 0 -78.443756 29.325562 -156.89592 14.662781zm12.9263 0l0 -9.881439l155.82436 0l0 76.69798c-5.9231567 0 -11.854736 0.53125 -11.854736 0.53125l0 -67.34779zm12.15004 -9.881439l0 -9.6423645l157.17438 0l0 76.45891c-6.7500305 0 -13.500061 0.39846802 -13.500061 0.39846802l0 -67.21501z" fill-rule="evenodd"/><path fill="#000000" fill-opacity="0.0" d="m221.70448 247.09782l156.89592 0l0 76.21983c-78.443756 0 -78.443756 29.325562 -156.89592 14.662781zm12.9263 0l0 -9.881439l155.82436 0l0 76.69798c-5.9231567 0 -11.854736 0.53125 -11.854736 0.53125m-131.81958 -77.22923l0 -9.6423645l157.17438 0l0 76.45891c-6.7500305 0 -13.500061 0.39846802 -13.500061 0.39846802" fill-rule="evenodd"/><path fill="#000000" fill-opacity="0.0" d="m221.70448 337.98044c78.45216 14.662781 78.45216 -14.662781 156.89592 -14.662781l0 -8.87204c0 0 5.9315796 -0.53125 11.854736 -0.53125l0 -9.482971c0 0 6.7500305 -0.39846802 13.500061 -0.39846802l0 -76.45891l-157.17438 0l0 9.6423645l-12.15004 0l0 9.881439l-12.9263 0z" fill-rule="evenodd"/><path stroke="#000000" stroke-width="1.0" stroke-linejoin="round" stroke-linecap="butt" d="m221.70448 247.09782l156.89592 0l0 76.21983c-78.443756 0 -78.443756 29.325562 -156.89592 14.662781zm12.9263 0l0 -9.881439l155.82436 0l0 76.69798c-5.9231567 0 -11.854736 0.53125 -11.854736 0.53125m-131.81958 -77.22923l0 -9.6423645l157.17438 0l0 76.45891c-6.7500305 0 -13.500061 0.39846802 -13.500061 0.39846802" fill-rule="evenodd"/><path fill="#000000" d="m244.08656 297.33914l-1.25 0l0 -4.375l-4.78125 0l0 4.375l-1.25 0l0 -9.46875l1.25 0l0 4.0625l4.78125 0l0 -4.0625l1.25 0l0 9.46875zm8.578323 -8.453125l-3.046875 0l0 8.453125l-1.234375 0l0 -8.453125l-3.046875 0l0 -1.015625l7.328125 0l0 1.015625zm6.1257935 5.984375l-3.96875 0l-0.890625 2.46875l-1.28125 0l3.609375 -9.46875l1.09375 0l3.625 9.46875l-1.28125 0l-0.90625 -2.46875zm-3.59375 -1.03125l3.234375 0l-1.625 -4.4375l-1.609375 4.4375zm11.944519 4.484375l-5.953125 0l0 -0.984375l5.953125 0l0 0.984375zm3.3101501 -5.453125l1.546875 -2.578125l1.40625 0l-2.296875 3.484375l2.375 3.5625l-1.390625 0l-1.625 -2.640625l-1.625 2.640625l-1.40625 0l2.375 -3.5625l-2.296875 -3.484375l1.390625 0l1.546875 2.578125zm6.6054993 0l1.546875 -2.578125l1.40625 0l-2.296875 3.484375l2.375 3.5625l-1.390625 0l-1.625 -2.640625l-1.625 2.640625l-1.40625 0l2.375 -3.5625l-2.296875 -3.484375l1.390625 0l1.546875 2.578125zm6.6054993 0l1.546875 -2.578125l1.40625 0l-2.296875 3.484375l2.375 3.5625l-1.390625 0l-1.625 -2.640625l-1.625 2.640625l-1.40625 0l2.375 -3.5625l-2.296875 -3.484375l1.390625 0l1.546875 2.578125zm9.308624 5.453125l-5.953125 0l0 -0.984375l5.953125 0l0 0.984375zm3.3101501 -5.453125l1.546875 -2.578125l1.40625 0l-2.296875 3.484375l2.375 3.5625l-1.390625 0l-1.625 -2.640625l-1.625 2.640625l-1.40625 0l2.375 -3.5625l-2.296875 -3.484375l1.390625 0l1.546875 2.578125zm6.6054993 0l1.546875 -2.578125l1.40625 0l-2.296875 3.484375l2.375 3.5625l-1.390625 0l-1.625 -2.640625l-1.625 2.640625l-1.40625 0l2.375 -3.5625l-2.296875 -3.484375l1.390625 0l1.546875 2.578125zm6.6054993 0l1.546875 -2.578125l1.40625 0l-2.296875 3.484375l2.375 3.5625l-1.390625 0l-1.625 -2.640625l-1.625 2.640625l-1.40625 0l2.375 -3.5625l-2.296875 -3.484375l1.390625 0l1.546875 2.578125zm4.2617493 3.84375q0 -0.3125 0.1875 -0.515625q0.1875 -0.21875 0.546875 -0.21875q0.375 0 0.5625 0.21875q0.203125 0.203125 0.203125 0.515625q0 0.296875 -0.203125 0.5q-0.1875 0.203125 -0.5625 0.203125q-0.359375 0 -0.546875 -0.203125q-0.1875 -0.203125 -0.1875 -0.5zm4.0702515 0.625l0 -6.109375l-1.109375 0l0 -0.9375l1.109375 0l0 -0.71875q0 -1.125 0.609375 -1.734375q0.609375 -0.625 1.703125 -0.625q0.421875 0 0.828125 0.109375l-0.0625 0.96875q-0.296875 -0.0625 -0.640625 -0.0625q-0.59375 0 -0.921875 0.34375q-0.3125 0.34375 -0.3125 0.984375l0 0.734375l1.5 0l0 0.9375l-1.5 0l0 6.109375l-1.203125 0zm8.392731 0q-0.109375 -0.203125 -0.171875 -0.734375q-0.84375 0.859375 -2.015625 0.859375q-1.03125 0 -1.703125 -0.578125q-0.671875 -0.59375 -0.671875 -1.5q0 -1.09375 0.828125 -1.703125q0.84375 -0.609375 2.359375 -0.609375l1.171875 0l0 -0.5625q0 -0.625 -0.375 -1.0q-0.375 -0.375 -1.109375 -0.375q-0.640625 0 -1.078125 0.328125q-0.4375 0.328125 -0.4375 0.78125l-1.203125 0q0 -0.515625 0.359375 -1.0q0.375 -0.5 1.015625 -0.78125q0.65625 -0.296875 1.421875 -0.296875q1.21875 0 1.90625 0.609375q0.6875 0.609375 0.71875 1.671875l0 3.25q0 0.96875 0.234375 1.53125l0 0.109375l-1.25 0zm-2.0 -0.921875q0.5625 0 1.0625 -0.28125q0.515625 -0.296875 0.734375 -0.765625l0 -1.453125l-0.9375 0q-2.21875 0 -2.21875 1.296875q0 0.5625 0.375 0.890625q0.390625 0.3125 0.984375 0.3125zm8.999786 -0.953125q0 -0.484375 -0.375 -0.75q-0.359375 -0.265625 -1.28125 -0.453125q-0.90625 -0.203125 -1.453125 -0.46875q-0.53125 -0.28125 -0.796875 -0.65625q-0.25 -0.390625 -0.25 -0.90625q0 -0.859375 0.734375 -1.453125q0.734375 -0.609375 1.875 -0.609375q1.1875 0 1.9375 0.625q0.75 0.609375 0.75 1.578125l-1.21875 0q0 -0.5 -0.421875 -0.859375q-0.421875 -0.359375 -1.046875 -0.359375q-0.65625 0 -1.03125 0.296875q-0.375 0.28125 -0.375 0.75q0 0.421875 0.34375 0.65625q0.34375 0.21875 1.25 0.421875q0.90625 0.203125 1.453125 0.484375q0.5625 0.265625 0.828125 0.671875q0.28125 0.390625 0.28125 0.953125q0 0.9375 -0.765625 1.515625q-0.75 0.5625 -1.953125 0.5625q-0.84375 0 -1.5 -0.296875q-0.640625 -0.296875 -1.015625 -0.828125q-0.359375 -0.546875 -0.359375 -1.171875l1.203125 0q0.03125 0.609375 0.484375 0.96875q0.453125 0.34375 1.1875 0.34375q0.6875 0 1.09375 -0.265625q0.421875 -0.28125 0.421875 -0.75zm4.4035645 -6.875l0 1.703125l1.3125 0l0 0.9375l-1.3125 0l0 4.359375q0 0.421875 0.171875 0.640625q0.171875 0.21875 0.59375 0.21875q0.21875 0 0.578125 -0.078125l0 0.96875q-0.46875 0.125 -0.921875 0.125q-0.8125 0 -1.21875 -0.484375q-0.40625 -0.484375 -0.40625 -1.390625l0 -4.359375l-1.28125 0l0 -0.9375l1.28125 0l0 -1.703125l1.203125 0zm2.4318848 5.171875q0 -1.65625 0.75 -2.625q0.765625 -0.96875 2.046875 -0.96875q1.25 0 1.96875 0.84375l0.0625 -0.71875l1.09375 0l0 9.75l-1.203125 0l0 -3.359375q-0.71875 0.78125 -1.9375 0.78125q-1.265625 0 -2.03125 -0.984375q-0.75 -1.0 -0.75 -2.640625l0 -0.078125zm1.203125 0.140625q0 1.203125 0.5 1.890625q0.515625 0.6875 1.375 0.6875q1.078125 0 1.640625 -0.9375l0 -3.453125q-0.5625 -0.9375 -1.625 -0.9375q-0.875 0 -1.390625 0.703125q-0.5 0.6875 -0.5 2.046875zm6.68454 2.8125q0 -0.3125 0.1875 -0.515625q0.1875 -0.21875 0.546875 -0.21875q0.375 0 0.5625 0.21875q0.203125 0.203125 0.203125 0.515625q0 0.296875 -0.203125 0.5q-0.1875 0.203125 -0.5625 0.203125q-0.359375 0 -0.546875 -0.203125q-0.1875 -0.203125 -0.1875 -0.5zm3.1952515 -2.953125q0 -1.640625 0.75 -2.609375q0.765625 -0.984375 2.03125 -0.984375q1.28125 0 2.015625 0.90625l0.046875 -0.78125l1.109375 0l0 6.875q0 1.375 -0.8125 2.15625q-0.8125 0.78125 -2.1875 0.78125q-0.75 0 -1.484375 -0.328125q-0.734375 -0.3125 -1.109375 -0.875l0.625 -0.734375q0.765625 0.96875 1.890625 0.96875q0.875 0 1.359375 -0.5q0.5 -0.5 0.5 -1.390625l0 -0.609375q-0.71875 0.828125 -1.96875 0.828125q-1.234375 0 -2.0 -0.984375q-0.765625 -1.0 -0.765625 -2.71875zm1.203125 0.140625q0 1.1875 0.484375 1.875q0.5 0.671875 1.375 0.671875q1.140625 0 1.671875 -1.03125l0 -3.21875q-0.546875 -1.015625 -1.65625 -1.015625q-0.875 0 -1.375 0.6875q-0.5 0.6875 -0.5 2.03125zm7.696289 2.453125l4.109375 0l0 0.984375l-5.578125 0l0 -0.890625l3.875 -5.15625l-3.828125 0l0 -1.0l5.34375 0l0 0.859375l-3.921875 5.203125z" fill-rule="nonzero"/></g></svg>