<svg version="1.1" viewBox="0.0 0.0 960.0 720.0" fill="none" stroke="none" stroke-linecap="square" stroke-miterlimit="10" xmlns:xlink="http://www.w3.org/1999/xlink" xmlns="http://www.w3.org/2000/svg"><clipPath id="p.0"><path d="m0 0l960.0 0l0 720.0l-960.0 0l0 -720.0z" clip-rule="nonzero"/></clipPath><g clip-path="url(#p.0)"><path fill="#000000" fill-opacity="0.0" d="m0 0l960.0 0l0 720.0l-960.0 0z" fill-rule="evenodd"/><path fill="#ffffff" d="m10.627296 127.80577l466.86615 0l0 112.91339l-466.86615 0z" fill-rule="evenodd"/><path stroke="#000000" stroke-width="1.0" stroke-linejoin="round" stroke-linecap="butt" d="m10.627296 127.80577l466.86615 0l0 112.91339l-466.86615 0z" fill-rule="evenodd"/><path fill="#cccccc" d="m10.627296 8.947507l466.86615 0l0 112.91338l-466.86615 0z" fill-rule="evenodd"/><path stroke="#000000" stroke-width="1.0" stroke-linejoin="round" stroke-linecap="butt" d="m10.627296 8.947507l466.86615 0l0 112.91338l-466.86615 0z" fill-rule="evenodd"/><path fill="#cfe2f3" d="m118.82415 27.622047l65.88976 0l0 80.69292l-65.88976 0z" fill-rule="evenodd"/><path stroke="#000000" stroke-width="1.0" stroke-linejoin="round" stroke-linecap="butt" d="m118.82415 27.622047l65.88976 0l0 80.69292l-65.88976 0z" fill-rule="evenodd"/><path fill="#000000" d="m132.66205 70.36851l-0.84375 0l0 -0.5q-0.21875 0.28125 -0.5 0.4375q-0.28125 0.140625 -0.578125 0.140625q-0.59375 0 -1.03125 -0.46875q-0.421875 -0.484375 -0.421875 -1.34375q0 -0.875 0.40625 -1.328125q0.421875 -0.46875 1.0625 -0.46875q0.578125 0 1.0 0.484375l0 -1.71875l0.90625 0l0 4.765625zm-2.4375 -1.796875q0 0.546875 0.15625 0.796875q0.21875 0.359375 0.609375 0.359375q0.328125 0 0.546875 -0.265625q0.21875 -0.28125 0.21875 -0.8125q0 -0.59375 -0.21875 -0.84375q-0.21875 -0.265625 -0.546875 -0.265625q-0.328125 0 -0.546875 0.265625q-0.21875 0.25 -0.21875 0.765625zm5.3471527 0.703125l0.90625 0.140625q-0.171875 0.515625 -0.5625 0.78125q-0.375 0.25 -0.9375 0.25q-0.90625 0 -1.34375 -0.59375q-0.328125 -0.46875 -0.328125 -1.1875q0 -0.859375 0.4375 -1.34375q0.453125 -0.484375 1.140625 -0.484375q0.765625 0 1.203125 0.515625q0.453125 0.5 0.4375 1.546875l-2.296875 0q0.015625 0.40625 0.21875 0.640625q0.21875 0.21875 0.53125 0.21875q0.21875 0 0.359375 -0.109375q0.15625 -0.125 0.234375 -0.375zm0.046875 -0.921875q-0.015625 -0.40625 -0.21875 -0.609375q-0.1875 -0.203125 -0.46875 -0.203125q-0.296875 0 -0.484375 0.21875q-0.203125 0.21875 -0.203125 0.59375l1.375 0zm1.576889 -1.4375l0.84375 0l0 0.46875q0.453125 -0.546875 1.078125 -0.546875q0.328125 0 0.5625 0.140625q0.25 0.140625 0.40625 0.40625q0.234375 -0.265625 0.5 -0.40625q0.265625 -0.140625 0.5625 -0.140625q0.375 0 0.640625 0.15625q0.265625 0.15625 0.390625 0.453125q0.09375 0.21875 0.09375 0.71875l0 2.203125l-0.90625 0l0 -1.96875q0 -0.515625 -0.09375 -0.671875q-0.125 -0.1875 -0.390625 -0.1875q-0.203125 0 -0.375 0.125q-0.15625 0.109375 -0.234375 0.34375q-0.078125 0.21875 -0.078125 0.703125l0 1.65625l-0.90625 0l0 -1.890625q0 -0.5 -0.046875 -0.640625q-0.046875 -0.15625 -0.15625 -0.21875q-0.109375 -0.078125 -0.28125 -0.078125q-0.203125 0 -0.375 0.109375q-0.171875 0.109375 -0.25 0.328125q-0.0625 0.21875 -0.0625 0.71875l0 1.671875l-0.921875 0l0 -3.453125zm5.7778473 1.671875q0 -0.453125 0.21875 -0.875q0.234375 -0.421875 0.640625 -0.640625q0.40625 -0.234375 0.921875 -0.234375q0.78125 0 1.28125 0.515625q0.5 0.5 0.5 1.28125q0 0.78125 -0.515625 1.296875q-0.5 0.515625 -1.265625 0.515625q-0.46875 0 -0.90625 -0.203125q-0.421875 -0.21875 -0.65625 -0.640625q-0.21875 -0.421875 -0.21875 -1.015625zm0.9375 0.0625q0 0.5 0.234375 0.78125q0.25 0.265625 0.609375 0.265625q0.359375 0 0.59375 -0.265625q0.25 -0.28125 0.25 -0.796875q0 -0.5 -0.25 -0.765625q-0.234375 -0.28125 -0.59375 -0.28125q-0.359375 0 -0.609375 0.28125q-0.234375 0.265625 -0.234375 0.78125zm3.2534027 1.953125l1.046875 0.125q0.03125 0.171875 0.125 0.25q0.125 0.09375 0.40625 0.09375q0.359375 0 0.53125 -0.109375q0.125 -0.078125 0.1875 -0.234375q0.046875 -0.109375 0.046875 -0.421875l0 -0.5q-0.421875 0.5625 -1.046875 0.5625q-0.6875 0 -1.09375 -0.59375q-0.328125 -0.453125 -0.328125 -1.15625q0 -0.859375 0.421875 -1.3125q0.421875 -0.46875 1.046875 -0.46875q0.640625 0 1.046875 0.5625l0 -0.484375l0.859375 0l0 3.09375q0 0.609375 -0.109375 0.90625q-0.09375 0.3125 -0.28125 0.484375q-0.171875 0.171875 -0.484375 0.265625q-0.296875 0.109375 -0.765625 0.109375q-0.875 0 -1.25 -0.3125q-0.359375 -0.296875 -0.359375 -0.75q0 -0.046875 0 -0.109375zm0.8125 -2.03125q0 0.546875 0.21875 0.8125q0.21875 0.25 0.53125 0.25q0.328125 0 0.5625 -0.265625q0.234375 -0.265625 0.234375 -0.78125q0 -0.53125 -0.234375 -0.78125q-0.21875 -0.265625 -0.546875 -0.265625q-0.328125 0 -0.546875 0.25q-0.21875 0.25 -0.21875 0.78125zm4.2221527 1.796875l-0.921875 0l0 -3.453125l0.84375 0l0 0.5q0.21875 -0.359375 0.390625 -0.46875q0.1875 -0.109375 0.40625 -0.109375q0.3125 0 0.59375 0.171875l-0.28125 0.796875q-0.234375 -0.140625 -0.421875 -0.140625q-0.203125 0 -0.34375 0.109375q-0.125 0.09375 -0.203125 0.375q-0.0625 0.265625 -0.0625 1.15625l0 1.0625zm2.3872223 -2.40625l-0.828125 -0.140625q0.140625 -0.5 0.484375 -0.734375q0.34375 -0.25 1.015625 -0.25q0.609375 0 0.90625 0.15625q0.296875 0.140625 0.421875 0.359375q0.125 0.21875 0.125 0.8125l-0.015625 1.0625q0 0.46875 0.046875 0.6875q0.046875 0.203125 0.171875 0.453125l-0.90625 0q-0.046875 -0.09375 -0.09375 -0.265625q-0.015625 -0.078125 -0.03125 -0.109375q-0.234375 0.21875 -0.5 0.34375q-0.265625 0.109375 -0.5625 0.109375q-0.546875 0 -0.859375 -0.28125q-0.296875 -0.296875 -0.296875 -0.734375q0 -0.296875 0.140625 -0.515625q0.140625 -0.234375 0.390625 -0.359375q0.25 -0.125 0.734375 -0.21875q0.640625 -0.109375 0.875 -0.21875l0 -0.09375q0 -0.265625 -0.125 -0.375q-0.125 -0.109375 -0.484375 -0.109375q-0.25 0 -0.390625 0.09375q-0.125 0.09375 -0.21875 0.328125zm1.21875 0.75q-0.171875 0.0625 -0.546875 0.140625q-0.375 0.078125 -0.5 0.15625q-0.171875 0.125 -0.171875 0.328125q0 0.1875 0.140625 0.328125q0.140625 0.140625 0.359375 0.140625q0.25 0 0.46875 -0.171875q0.171875 -0.109375 0.21875 -0.296875q0.03125 -0.109375 0.03125 -0.4375l0 -0.1875zm1.780014 -1.796875l0.84375 0l0 0.515625q0.171875 -0.265625 0.453125 -0.421875q0.28125 -0.171875 0.625 -0.171875q0.609375 0 1.015625 0.46875q0.421875 0.46875 0.421875 1.3125q0 0.875 -0.421875 1.359375q-0.421875 0.46875 -1.015625 0.46875q-0.28125 0 -0.515625 -0.109375q-0.234375 -0.125 -0.5 -0.390625l0 1.734375l-0.90625 0l0 -4.765625zm0.90625 1.671875q0 0.578125 0.21875 0.859375q0.234375 0.28125 0.5625 0.28125q0.328125 0 0.53125 -0.25q0.21875 -0.265625 0.21875 -0.84375q0 -0.546875 -0.21875 -0.8125q-0.21875 -0.265625 -0.546875 -0.265625q-0.328125 0 -0.546875 0.265625q-0.21875 0.25 -0.21875 0.765625zm4.0971527 -2.984375l0 1.75q0.4375 -0.515625 1.046875 -0.515625q0.328125 0 0.578125 0.125q0.25 0.109375 0.375 0.296875q0.125 0.171875 0.171875 0.40625q0.0625 0.21875 0.0625 0.671875l0 2.03125l-0.921875 0l0 -1.828125q0 -0.53125 -0.0625 -0.671875q-0.046875 -0.15625 -0.171875 -0.234375q-0.125 -0.09375 -0.328125 -0.09375q-0.234375 0 -0.421875 0.109375q-0.171875 0.109375 -0.25 0.328125q-0.078125 0.21875 -0.078125 0.65625l0 1.734375l-0.921875 0l0 -4.765625l0.921875 0zm3.1596527 0.84375l0 -0.84375l0.90625 0l0 0.84375l-0.90625 0zm0 3.921875l0 -3.453125l0.90625 0l0 3.453125l-0.90625 0zm4.8493195 -2.4375l-0.890625 0.171875q-0.046875 -0.265625 -0.21875 -0.40625q-0.15625 -0.140625 -0.40625 -0.140625q-0.34375 0 -0.546875 0.234375q-0.203125 0.234375 -0.203125 0.796875q0 0.609375 0.203125 0.859375q0.203125 0.25 0.546875 0.25q0.265625 0 0.421875 -0.140625q0.171875 -0.15625 0.25 -0.515625l0.890625 0.15625q-0.140625 0.625 -0.546875 0.9375q-0.390625 0.3125 -1.046875 0.3125q-0.765625 0 -1.21875 -0.46875q-0.4375 -0.484375 -0.4375 -1.328125q0 -0.859375 0.453125 -1.328125q0.453125 -0.484375 1.21875 -0.484375q0.625 0 1.0 0.28125q0.375 0.265625 0.53125 0.8125zm0.37376404 1.453125l0.921875 -0.140625q0.046875 0.265625 0.21875 0.40625q0.1875 0.140625 0.515625 0.140625q0.359375 0 0.53125 -0.140625q0.125 -0.078125 0.125 -0.234375q0 -0.109375 -0.0625 -0.171875q-0.078125 -0.0625 -0.3125 -0.125q-1.109375 -0.234375 -1.40625 -0.4375q-0.40625 -0.28125 -0.40625 -0.78125q0 -0.453125 0.34375 -0.75q0.359375 -0.3125 1.109375 -0.3125q0.703125 0 1.046875 0.234375q0.359375 0.234375 0.484375 0.6875l-0.859375 0.15625q-0.0625 -0.203125 -0.21875 -0.3125q-0.15625 -0.109375 -0.4375 -0.109375q-0.359375 0 -0.515625 0.109375q-0.109375 0.0625 -0.109375 0.171875q0 0.109375 0.09375 0.171875q0.125 0.09375 0.859375 0.265625q0.734375 0.15625 1.015625 0.390625q0.28125 0.25 0.28125 0.6875q0 0.46875 -0.390625 0.8125q-0.390625 0.34375 -1.171875 0.34375q-0.703125 0 -1.125 -0.28125q-0.40625 -0.296875 -0.53125 -0.78125z" fill-rule="nonzero"/><path fill="#cfe2f3" d="m168.71391 43.622047l0 -16.0l16.0 16.0z" fill-rule="evenodd"/><path stroke="#000000" stroke-width="1.0" stroke-linejoin="round" stroke-linecap="butt" d="m168.71391 43.622047l0 -16.0l16.0 16.0z" fill-rule="evenodd"/><path fill="#cccccc" d="m185.6588 26.078741l0 19.086615l-17.88977 -19.086615z" fill-rule="evenodd"/><path fill="#cfe2f3" d="m193.93176 27.622047l65.88977 0l0 80.69292l-65.88977 0z" fill-rule="evenodd"/><path stroke="#000000" stroke-width="1.0" stroke-linejoin="round" stroke-linecap="butt" d="m193.93176 27.622047l65.88977 0l0 80.69292l-65.88977 0z" fill-rule="evenodd"/><path fill="#000000" d="m205.31544 66.91538l0.5 0l0 -0.265625q0 -0.421875 0.09375 -0.640625q0.09375 -0.21875 0.34375 -0.34375q0.25 -0.140625 0.625 -0.140625q0.390625 0 0.765625 0.109375l-0.125 0.640625q-0.203125 -0.046875 -0.40625 -0.046875q-0.203125 0 -0.296875 0.09375q-0.078125 0.09375 -0.078125 0.34375l0 0.25l0.6875 0l0 0.71875l-0.6875 0l0 2.734375l-0.921875 0l0 -2.734375l-0.5 0l0 -0.71875zm3.2947083 1.046875l-0.828125 -0.140625q0.140625 -0.5 0.484375 -0.734375q0.34375 -0.25 1.015625 -0.25q0.609375 0 0.90625 0.15625q0.296875 0.140625 0.421875 0.359375q0.125 0.21875 0.125 0.8125l-0.015625 1.0625q0 0.46875 0.046875 0.6875q0.046875 0.203125 0.171875 0.453125l-0.90625 0q-0.046875 -0.09375 -0.09375 -0.265625q-0.015625 -0.078125 -0.03125 -0.109375q-0.234375 0.21875 -0.5 0.34375q-0.265625 0.109375 -0.5625 0.109375q-0.546875 0 -0.859375 -0.28125q-0.296875 -0.296875 -0.296875 -0.734375q0 -0.296875 0.140625 -0.515625q0.140625 -0.234375 0.390625 -0.359375q0.25 -0.125 0.734375 -0.21875q0.640625 -0.109375 0.875 -0.21875l0 -0.09375q0 -0.265625 -0.125 -0.375q-0.125 -0.109375 -0.484375 -0.109375q-0.25 0 -0.390625 0.09375q-0.125 0.09375 -0.21875 0.328125zm1.21875 0.75q-0.171875 0.0625 -0.546875 0.140625q-0.375 0.078125 -0.5 0.15625q-0.171875 0.125 -0.171875 0.328125q0 0.1875 0.140625 0.328125q0.140625 0.140625 0.359375 0.140625q0.25 0 0.46875 -0.171875q0.171875 -0.109375 0.21875 -0.296875q0.03125 -0.109375 0.03125 -0.4375l0 -0.1875zm1.733139 -1.796875l0.84375 0l0 0.46875q0.453125 -0.546875 1.078125 -0.546875q0.328125 0 0.5625 0.140625q0.25 0.140625 0.40625 0.40625q0.234375 -0.265625 0.5 -0.40625q0.265625 -0.140625 0.5625 -0.140625q0.375 0 0.640625 0.15625q0.265625 0.15625 0.390625 0.453125q0.09375 0.21875 0.09375 0.71875l0 2.203125l-0.90625 0l0 -1.96875q0 -0.515625 -0.09375 -0.671875q-0.125 -0.1875 -0.390625 -0.1875q-0.203125 0 -0.375 0.125q-0.15625 0.109375 -0.234375 0.34375q-0.078125 0.21875 -0.078125 0.703125l0 1.65625l-0.90625 0l0 -1.890625q0 -0.5 -0.046875 -0.640625q-0.046875 -0.15625 -0.15625 -0.21875q-0.109375 -0.078125 -0.28125 -0.078125q-0.203125 0 -0.375 0.109375q-0.171875 0.109375 -0.25 0.328125q-0.0625 0.21875 -0.0625 0.71875l0 1.671875l-0.921875 0l0 -3.453125zm5.9965973 -0.46875l0 -0.84375l0.90625 0l0 0.84375l-0.90625 0zm0 3.921875l0 -3.453125l0.90625 0l0 3.453125l-0.90625 0zm1.8493195 0l0 -4.765625l0.90625 0l0 4.765625l-0.90625 0zm1.4118195 -3.453125l0.96875 0l0.828125 2.453125l0.8125 -2.453125l0.9375 0l-1.21875 3.328125l-0.21875 0.59375q-0.125 0.3125 -0.234375 0.46875q-0.109375 0.15625 -0.25 0.25q-0.140625 0.109375 -0.34375 0.15625q-0.203125 0.0625 -0.46875 0.0625q-0.265625 0 -0.515625 -0.0625l-0.078125 -0.71875q0.21875 0.046875 0.390625 0.046875q0.3125 0 0.46875 -0.1875q0.15625 -0.1875 0.234375 -0.46875l-1.3125 -3.46875zm6.8949585 -1.3125l0 1.75q0.4375 -0.515625 1.046875 -0.515625q0.328125 0 0.578125 0.125q0.25 0.109375 0.375 0.296875q0.125 0.171875 0.171875 0.40625q0.0625 0.21875 0.0625 0.671875l0 2.03125l-0.921875 0l0 -1.828125q0 -0.53125 -0.0625 -0.671875q-0.046875 -0.15625 -0.171875 -0.234375q-0.125 -0.09375 -0.328125 -0.09375q-0.234375 0 -0.421875 0.109375q-0.171875 0.109375 -0.25 0.328125q-0.078125 0.21875 -0.078125 0.65625l0 1.734375l-0.921875 0l0 -4.765625l0.921875 0zm3.1596527 0.84375l0 -0.84375l0.90625 0l0 0.84375l-0.90625 0zm0 3.921875l0 -3.453125l0.90625 0l0 3.453125l-0.90625 0zm1.5211945 -0.984375l0.921875 -0.140625q0.046875 0.265625 0.21875 0.40625q0.1875 0.140625 0.515625 0.140625q0.359375 0 0.53125 -0.140625q0.125 -0.078125 0.125 -0.234375q0 -0.109375 -0.0625 -0.171875q-0.078125 -0.0625 -0.3125 -0.125q-1.109375 -0.234375 -1.40625 -0.4375q-0.40625 -0.28125 -0.40625 -0.78125q0 -0.453125 0.34375 -0.75q0.359375 -0.3125 1.109375 -0.3125q0.703125 0 1.046875 0.234375q0.359375 0.234375 0.484375 0.6875l-0.859375 0.15625q-0.0625 -0.203125 -0.21875 -0.3125q-0.15625 -0.109375 -0.4375 -0.109375q-0.359375 0 -0.515625 0.109375q-0.109375 0.0625 -0.109375 0.171875q0 0.109375 0.09375 0.171875q0.125 0.09375 0.859375 0.265625q0.734375 0.15625 1.015625 0.390625q0.28125 0.25 0.28125 0.6875q0 0.46875 -0.390625 0.8125q-0.390625 0.34375 -1.171875 0.34375q-0.703125 0 -1.125 -0.28125q-0.40625 -0.296875 -0.53125 -0.78125zm5.608139 -2.46875l0 0.734375l-0.625 0l0 1.390625q0 0.421875 0.015625 0.5q0.015625 0.0625 0.078125 0.109375q0.0625 0.046875 0.15625 0.046875q0.125 0 0.375 -0.09375l0.078125 0.703125q-0.328125 0.140625 -0.734375 0.140625q-0.234375 0 -0.4375 -0.078125q-0.203125 -0.09375 -0.296875 -0.21875q-0.09375 -0.125 -0.125 -0.359375q-0.03125 -0.15625 -0.03125 -0.640625l0 -1.5l-0.421875 0l0 -0.734375l0.421875 0l0 -0.6875l0.921875 -0.53125l0 1.21875l0.625 0zm0.41970825 1.671875q0 -0.453125 0.21875 -0.875q0.234375 -0.421875 0.640625 -0.640625q0.40625 -0.234375 0.921875 -0.234375q0.78125 0 1.28125 0.515625q0.5 0.5 0.5 1.28125q0 0.78125 -0.515625 1.296875q-0.5 0.515625 -1.265625 0.515625q-0.46875 0 -0.90625 -0.203125q-0.421875 -0.21875 -0.65625 -0.640625q-0.21875 -0.421875 -0.21875 -1.015625zm0.9375 0.0625q0 0.5 0.234375 0.78125q0.25 0.265625 0.609375 0.265625q0.359375 0 0.59375 -0.265625q0.25 -0.28125 0.25 -0.796875q0 -0.5 -0.25 -0.765625q-0.234375 -0.28125 -0.59375 -0.28125q-0.359375 0 -0.609375 0.28125q-0.234375 0.265625 -0.234375 0.78125zm4.2221527 1.71875l-0.921875 0l0 -3.453125l0.84375 0l0 0.5q0.21875 -0.359375 0.390625 -0.46875q0.1875 -0.109375 0.40625 -0.109375q0.3125 0 0.59375 0.171875l-0.28125 0.796875q-0.234375 -0.140625 -0.421875 -0.140625q-0.203125 0 -0.34375 0.109375q-0.125 0.09375 -0.203125 0.375q-0.0625 0.265625 -0.0625 1.15625l0 1.0625zm1.2778473 -3.453125l0.96875 0l0.828125 2.453125l0.8125 -2.453125l0.9375 0l-1.21875 3.328125l-0.21875 0.59375q-0.125 0.3125 -0.234375 0.46875q-0.109375 0.15625 -0.25 0.25q-0.140625 0.109375 -0.34375 0.15625q-0.203125 0.0625 -0.46875 0.0625q-0.265625 0 -0.515625 -0.0625l-0.078125 -0.71875q0.21875 0.046875 0.390625 0.046875q0.3125 0 0.46875 -0.1875q0.15625 -0.1875 0.234375 -0.46875l-1.3125 -3.46875z" fill-rule="nonzero"/><path fill="#cfe2f3" d="m243.82152 43.622047l0 -16.0l16.000015 16.0z" fill-rule="evenodd"/><path stroke="#000000" stroke-width="1.0" stroke-linejoin="round" stroke-linecap="butt" d="m243.82152 43.622047l0 -16.0l16.000015 16.0z" fill-rule="evenodd"/><path fill="#cccccc" d="m260.76642 26.078741l0 19.086615l-17.88977 -19.086615z" fill-rule="evenodd"/><path fill="#93c47d" d="m277.6509 25.829397l65.88977 0l0 80.69291l-65.88977 0z" fill-rule="evenodd"/><path stroke="#000000" stroke-width="1.0" stroke-linejoin="round" stroke-linecap="butt" d="m277.6509 25.829397l65.88977 0l0 80.69291l-65.88977 0z" fill-rule="evenodd"/><path fill="#000000" d="m290.68915 68.57586l0 -4.765629l0.921875 0l0 1.7187538q0.421875 -0.484375 1.0 -0.484375q0.625 0 1.03125 0.46875q0.421875 0.453125 0.421875 1.296875q0 0.890625 -0.421875 1.375q-0.421875 0.46875 -1.03125 0.46875q-0.28125 0 -0.578125 -0.140625q-0.28125 -0.15625 -0.5 -0.4375l0 0.5l-0.84375 0zm0.90625 -1.796875q0 0.53125 0.171875 0.796875q0.234375 0.359375 0.625 0.359375q0.3125 0 0.515625 -0.25q0.21875 -0.265625 0.21875 -0.828125q0 -0.59375 -0.21875 -0.84375q-0.21875 -0.265625 -0.546875 -0.265625q-0.328125 0 -0.546875 0.25q-0.21875 0.25 -0.21875 0.78125zm3.206543 -2.125l0 -0.8437538l0.90625 0l0 0.8437538l-0.90625 0zm0 3.921875l0 -3.453125l0.90625 0l0 3.453125l-0.90625 0zm1.6305542 -1.78125q0 -0.453125 0.21875 -0.875q0.234375 -0.421875 0.640625 -0.640625q0.40625 -0.234375 0.921875 -0.234375q0.78125 0 1.28125 0.515625q0.5 0.5 0.5 1.28125q0 0.78125 -0.515625 1.296875q-0.5 0.515625 -1.265625 0.515625q-0.46875 0 -0.90625 -0.203125q-0.421875 -0.21875 -0.65625 -0.640625q-0.21875 -0.421875 -0.21875 -1.015625zm0.9375 0.0625q0 0.5 0.234375 0.78125q0.25 0.265625 0.609375 0.265625q0.359375 0 0.59375 -0.265625q0.25 -0.28125 0.25 -0.796875q0 -0.5 -0.25 -0.765625q-0.234375 -0.28125 -0.59375 -0.28125q-0.359375 0 -0.609375 0.28125q-0.234375 0.265625 -0.234375 0.78125zm3.019043 0.734375l0.921875 -0.140625q0.046875 0.265625 0.21875 0.40625q0.1875 0.140625 0.515625 0.140625q0.359375 0 0.53125 -0.140625q0.125 -0.078125 0.125 -0.234375q0 -0.109375 -0.0625 -0.171875q-0.078125 -0.0625 -0.3125 -0.125q-1.109375 -0.234375 -1.40625 -0.4375q-0.40625 -0.28125 -0.40625 -0.78125q0 -0.453125 0.34375 -0.75q0.359375 -0.3125 1.109375 -0.3125q0.703125 0 1.046875 0.234375q0.359375 0.234375 0.484375 0.6875l-0.859375 0.15625q-0.0625 -0.203125 -0.21875 -0.3125q-0.15625 -0.109375 -0.4375 -0.109375q-0.359375 0 -0.515625 0.109375q-0.109375 0.0625 -0.109375 0.171875q0 0.109375 0.09375 0.171875q0.125 0.09375 0.859375 0.265625q0.734375 0.15625 1.015625 0.390625q0.28125 0.25 0.28125 0.6875q0 0.46875 -0.390625 0.8125q-0.390625 0.34375 -1.171875 0.34375q-0.703125 0 -1.125 -0.28125q-0.40625 -0.296875 -0.53125 -0.78125zm3.9987488 -2.46875l0.84375 0l0 0.515625q0.171875 -0.265625 0.453125 -0.421875q0.28125 -0.171875 0.625 -0.171875q0.609375 0 1.015625 0.46875q0.421875 0.46875 0.421875 1.3125q0 0.875 -0.421875 1.359375q-0.421875 0.46875 -1.015625 0.46875q-0.28125 0 -0.515625 -0.109375q-0.234375 -0.125 -0.5 -0.390625l0 1.734375l-0.90625 0l0 -4.765625zm0.90625 1.671875q0 0.578125 0.21875 0.859375q0.234375 0.28125 0.5625 0.28125q0.328125 0 0.53125 -0.25q0.21875 -0.265625 0.21875 -0.84375q0 -0.546875 -0.21875 -0.8125q-0.21875 -0.265625 -0.546875 -0.265625q-0.328125 0 -0.546875 0.265625q-0.21875 0.25 -0.21875 0.765625zm5.190918 0.6875l0.90625 0.140625q-0.171875 0.515625 -0.5625 0.78125q-0.375 0.25 -0.9375 0.25q-0.90625 0 -1.34375 -0.59375q-0.328125 -0.46875 -0.328125 -1.1875q0 -0.859375 0.4375 -1.34375q0.453125 -0.484375 1.140625 -0.484375q0.765625 0 1.203125 0.515625q0.453125 0.5 0.4375 1.546875l-2.296875 0q0.015625 0.40625 0.21875 0.640625q0.21875 0.21875 0.53125 0.21875q0.21875 0 0.359375 -0.109375q0.15625 -0.125 0.234375 -0.375zm0.046875 -0.921875q-0.015625 -0.40625 -0.21875 -0.609375q-0.1875 -0.203125 -0.46875 -0.203125q-0.296875 0 -0.484375 0.21875q-0.203125 0.21875 -0.203125 0.59375l1.375 0zm4.654999 -0.421875l-0.890625 0.171875q-0.046875 -0.265625 -0.21875 -0.40625q-0.15625 -0.140625 -0.40625 -0.140625q-0.34375 0 -0.546875 0.234375q-0.203125 0.234375 -0.203125 0.796875q0 0.609375 0.203125 0.859375q0.203125 0.25 0.546875 0.25q0.265625 0 0.421875 -0.140625q0.171875 -0.15625 0.25 -0.515625l0.890625 0.15625q-0.140625 0.625 -0.546875 0.9375q-0.390625 0.3125 -1.046875 0.3125q-0.765625 0 -1.21875 -0.46875q-0.4375 -0.484375 -0.4375 -1.328125q0 -0.859375 0.453125 -1.328125q0.453125 -0.484375 1.21875 -0.484375q0.625 0 1.0 0.28125q0.375 0.265625 0.53125 0.8125zm0.7019043 -1.484375l0 -0.8437538l0.90625 0l0 0.8437538l-0.90625 0zm0 3.921875l0 -3.453125l0.90625 0l0 3.453125l-0.90625 0zm1.7711792 -3.453125l0.84375 0l0 0.46875q0.453125 -0.546875 1.078125 -0.546875q0.328125 0 0.5625 0.140625q0.25 0.140625 0.40625 0.40625q0.234375 -0.265625 0.5 -0.40625q0.265625 -0.140625 0.5625 -0.140625q0.375 0 0.640625 0.15625q0.265625 0.15625 0.390625 0.453125q0.09375 0.21875 0.09375 0.71875l0 2.203125l-0.90625 0l0 -1.96875q0 -0.515625 -0.09375 -0.671875q-0.125 -0.1875 -0.390625 -0.1875q-0.203125 0 -0.375 0.125q-0.15625 0.109375 -0.234375 0.34375q-0.078125 0.21875 -0.078125 0.703125l0 1.65625l-0.90625 0l0 -1.890625q0 -0.5 -0.046875 -0.640625q-0.046875 -0.15625 -0.15625 -0.21875q-0.109375 -0.078125 -0.28125 -0.078125q-0.203125 0 -0.375 0.109375q-0.171875 0.109375 -0.25 0.328125q-0.0625 0.21875 -0.0625 0.71875l0 1.671875l-0.921875 0l0 -3.453125zm7.9966125 2.359375l0.90625 0.140625q-0.171875 0.515625 -0.5625 0.78125q-0.375 0.25 -0.9375 0.25q-0.90625 0 -1.34375 -0.59375q-0.328125 -0.46875 -0.328125 -1.1875q0 -0.859375 0.4375 -1.34375q0.453125 -0.484375 1.140625 -0.484375q0.765625 0 1.203125 0.515625q0.453125 0.5 0.4375 1.546875l-2.296875 0q0.015625 0.40625 0.21875 0.640625q0.21875 0.21875 0.53125 0.21875q0.21875 0 0.359375 -0.109375q0.15625 -0.125 0.234375 -0.375zm0.046875 -0.921875q-0.015625 -0.40625 -0.21875 -0.609375q-0.1875 -0.203125 -0.46875 -0.203125q-0.296875 0 -0.484375 0.21875q-0.203125 0.21875 -0.203125 0.59375l1.375 0zm4.795624 2.015625l-0.921875 0l0 -1.765625q0 -0.5625 -0.0625 -0.71875q-0.046875 -0.171875 -0.1875 -0.25q-0.125 -0.09375 -0.3125 -0.09375q-0.234375 0 -0.421875 0.125q-0.1875 0.125 -0.265625 0.34375q-0.0625 0.21875 -0.0625 0.796875l0 1.5625l-0.921875 0l0 -3.453125l0.84375 0l0 0.515625q0.453125 -0.59375 1.140625 -0.59375q0.3125 0 0.5625 0.109375q0.25 0.109375 0.375 0.28125q0.125 0.171875 0.171875 0.390625q0.0625 0.203125 0.0625 0.609375l0 2.140625z" fill-rule="nonzero"/><path fill="#93c47d" d="m327.54068 43.372704l0 -16.0l16.0 16.0z" fill-rule="evenodd"/><path stroke="#000000" stroke-width="1.0" stroke-linejoin="round" stroke-linecap="butt" d="m327.54068 43.372704l0 -16.0l16.0 16.0z" fill-rule="evenodd"/><path fill="#cccccc" d="m344.48557 24.286089l0 19.086615l-17.88977 -19.086615z" fill-rule="evenodd"/><path fill="#f9cb9c" d="m366.58792 26.850393l65.88977 0l0 80.69291l-65.88977 0z" fill-rule="evenodd"/><path stroke="#000000" stroke-width="1.0" stroke-linejoin="round" stroke-linecap="butt" d="m366.58792 26.850393l65.88977 0l0 80.69291l-65.88977 0z" fill-rule="evenodd"/><path fill="#000000" d="m389.83942 57.59685l0 -4.765625l0.90625 0l0 4.765625l-0.90625 0zm3.8493347 -1.09375l0.90625 0.140625q-0.171875 0.515625 -0.5625 0.78125q-0.375 0.25 -0.9375 0.25q-0.90625 0 -1.34375 -0.59375q-0.328125 -0.46875 -0.328125 -1.1875q0 -0.859375 0.4375 -1.34375q0.453125 -0.484375 1.140625 -0.484375q0.765625 0 1.203125 0.515625q0.453125 0.5 0.4375 1.546875l-2.296875 0q0.015625 0.40625 0.21875 0.640625q0.21875 0.21875 0.53125 0.21875q0.21875 0 0.359375 -0.109375q0.15625 -0.125 0.234375 -0.375zm0.046875 -0.921875q-0.015625 -0.40625 -0.21875 -0.609375q-0.1875 -0.203125 -0.46875 -0.203125q-0.296875 0 -0.484375 0.21875q-0.203125 0.21875 -0.203125 0.59375l1.375 0zm2.5924988 2.015625l-1.390625 -3.453125l0.96875 0l0.640625 1.765625l0.1875 0.578125q0.078125 -0.21875 0.09375 -0.28125q0.046875 -0.15625 0.109375 -0.296875l0.65625 -1.765625l0.9375 0l-1.375 3.453125l-0.828125 0zm4.7644043 -1.09375l0.90625 0.140625q-0.171875 0.515625 -0.5625 0.78125q-0.375 0.25 -0.9375 0.25q-0.90625 0 -1.34375 -0.59375q-0.328125 -0.46875 -0.328125 -1.1875q0 -0.859375 0.4375 -1.34375q0.453125 -0.484375 1.140625 -0.484375q0.765625 0 1.203125 0.515625q0.453125 0.5 0.4375 1.546875l-2.296875 0q0.015625 0.40625 0.21875 0.640625q0.21875 0.21875 0.53125 0.21875q0.21875 0 0.359375 -0.109375q0.15625 -0.125 0.234375 -0.375zm0.046875 -0.921875q-0.015625 -0.40625 -0.21875 -0.609375q-0.1875 -0.203125 -0.46875 -0.203125q-0.296875 0 -0.484375 0.21875q-0.203125 0.21875 -0.203125 0.59375l1.375 0zm1.6549988 2.015625l0 -4.765625l0.90625 0l0 4.765625l-0.90625 0zm5.839264 0l-0.921875 0l0 -3.4375q-0.5 0.46875 -1.171875 0.6875l0 -0.828125q0.359375 -0.125 0.765625 -0.4375q0.421875 -0.328125 0.578125 -0.765625l0.75 0l0 4.78125z" fill-rule="nonzero"/><path fill="#000000" d="m379.0753 65.596855l0 -4.765625l0.921875 0l0 1.71875q0.421875 -0.484375 1.0 -0.484375q0.625 0 1.03125 0.46875q0.421875 0.453125 0.421875 1.296875q0 0.890625 -0.421875 1.375q-0.421875 0.46875 -1.03125 0.46875q-0.28125 0 -0.578125 -0.140625q-0.28125 -0.15625 -0.5 -0.4375l0 0.5l-0.84375 0zm0.90625 -1.796875q0 0.53125 0.171875 0.796875q0.234375 0.359375 0.625 0.359375q0.3125 0 0.515625 -0.25q0.21875 -0.265625 0.21875 -0.828125q0 -0.59375 -0.21875 -0.84375q-0.21875 -0.265625 -0.546875 -0.265625q-0.328125 0 -0.546875 0.25q-0.21875 0.25 -0.21875 0.78125zm5.4721375 1.796875l0 -0.515625q-0.1875 0.28125 -0.5 0.4375q-0.296875 0.15625 -0.640625 0.15625q-0.359375 0 -0.640625 -0.15625q-0.265625 -0.15625 -0.390625 -0.421875q-0.125 -0.28125 -0.125 -0.765625l0 -2.1875l0.921875 0l0 1.59375q0 0.71875 0.046875 0.890625q0.046875 0.15625 0.171875 0.25q0.140625 0.09375 0.34375 0.09375q0.234375 0 0.421875 -0.125q0.1875 -0.125 0.25 -0.3125q0.078125 -0.1875 0.078125 -0.9375l0 -1.453125l0.90625 0l0 3.453125l-0.84375 0zm1.800293 0l0 -4.765625l0.90625 0l0 4.765625l-0.90625 0zm1.8024292 0l0 -4.765625l0.921875 0l0 2.53125l1.0625 -1.21875l1.125 0l-1.171875 1.265625l1.265625 2.1875l-0.984375 0l-0.875 -1.546875l-0.421875 0.4375l0 1.109375l-0.921875 0zm3.6394043 -1.265625l0 -0.921875l1.78125 0l0 0.921875l-1.78125 0zm2.3259583 1.265625l0 -4.765625l2.03125 0q0.765625 0 1.109375 0.125q0.34375 0.125 0.546875 0.46875q0.21875 0.328125 0.21875 0.75q0 0.53125 -0.328125 0.890625q-0.3125 0.34375 -0.9375 0.421875q0.3125 0.1875 0.515625 0.40625q0.203125 0.21875 0.546875 0.78125l0.578125 0.921875l-1.140625 0l-0.703125 -1.03125q-0.375 -0.5625 -0.515625 -0.703125q-0.125 -0.140625 -0.28125 -0.1875q-0.15625 -0.0625 -0.484375 -0.0625l-0.1875 0l0 1.984375l-0.96875 0zm0.96875 -2.75l0.703125 0q0.703125 0 0.875 -0.046875q0.171875 -0.0625 0.265625 -0.203125q0.09375 -0.15625 0.09375 -0.359375q0 -0.25 -0.125 -0.390625q-0.125 -0.15625 -0.359375 -0.1875q-0.125 -0.015625 -0.703125 -0.015625l-0.75 0l0 1.203125zm3.8537903 2.75l0 -4.765625l0.9375 0l1.9375 3.1875l0 -3.1875l0.90625 0l0 4.765625l-0.96875 0l-1.921875 -3.109375l0 3.109375l-0.890625 0zm9.088196 0l-1.046875 0l-0.421875 -1.078125l-1.90625 0l-0.390625 1.078125l-1.015625 0l1.859375 -4.765625l1.015625 0l1.90625 4.765625zm-1.765625 -1.890625l-0.65625 -1.765625l-0.65625 1.765625l1.3125 0zm1.9475403 0.90625l0.921875 -0.140625q0.046875 0.265625 0.21875 0.40625q0.1875 0.140625 0.515625 0.140625q0.359375 0 0.53125 -0.140625q0.125 -0.078125 0.125 -0.234375q0 -0.109375 -0.0625 -0.171875q-0.078125 -0.0625 -0.3125 -0.125q-1.109375 -0.234375 -1.40625 -0.4375q-0.40625 -0.28125 -0.40625 -0.78125q0 -0.453125 0.34375 -0.75q0.359375 -0.3125 1.109375 -0.3125q0.703125 0 1.046875 0.234375q0.359375 0.234375 0.484375 0.6875l-0.859375 0.15625q-0.0625 -0.203125 -0.21875 -0.3125q-0.15625 -0.109375 -0.4375 -0.109375q-0.359375 0 -0.515625 0.109375q-0.109375 0.0625 -0.109375 0.171875q0 0.109375 0.09375 0.171875q0.125 0.09375 0.859375 0.265625q0.734375 0.15625 1.015625 0.390625q0.28125 0.25 0.28125 0.6875q0 0.46875 -0.390625 0.8125q-0.390625 0.34375 -1.171875 0.34375q-0.703125 0 -1.125 -0.28125q-0.40625 -0.296875 -0.53125 -0.78125zm6.0300293 -0.109375l0.90625 0.140625q-0.171875 0.515625 -0.5625 0.78125q-0.375 0.25 -0.9375 0.25q-0.90625 0 -1.34375 -0.59375q-0.328125 -0.46875 -0.328125 -1.1875q0 -0.859375 0.4375 -1.34375q0.453125 -0.484375 1.140625 -0.484375q0.765625 0 1.203125 0.515625q0.453125 0.5 0.4375 1.546875l-2.296875 0q0.015625 0.40625 0.21875 0.640625q0.21875 0.21875 0.53125 0.21875q0.21875 0 0.359375 -0.109375q0.15625 -0.125 0.234375 -0.375zm0.046875 -0.921875q-0.015625 -0.40625 -0.21875 -0.609375q-0.1875 -0.203125 -0.46875 -0.203125q-0.296875 0 -0.484375 0.21875q-0.203125 0.21875 -0.203125 0.59375l1.375 0zm3.9049988 3.328125l0 -1.734375q-0.1875 0.234375 -0.453125 0.375q-0.265625 0.125 -0.5625 0.125q-0.59375 0 -0.96875 -0.4375q-0.453125 -0.515625 -0.453125 -1.40625q0 -0.828125 0.421875 -1.296875q0.421875 -0.46875 1.046875 -0.46875q0.34375 0 0.59375 0.15625q0.25 0.140625 0.453125 0.4375l0 -0.515625l0.828125 0l0 4.765625l-0.90625 0zm0.03125 -3.078125q0 -0.53125 -0.21875 -0.78125q-0.21875 -0.265625 -0.546875 -0.265625q-0.328125 0 -0.546875 0.265625q-0.21875 0.265625 -0.21875 0.828125q0 0.578125 0.203125 0.828125q0.21875 0.25 0.53125 0.25q0.3125 0 0.546875 -0.28125q0.25 -0.28125 0.25 -0.84375z" fill-rule="nonzero"/><path fill="#000000" d="m391.1698 75.003105l-0.640625 0q-0.484375 -0.75 -0.75 -1.5625q-0.265625 -0.8125 -0.265625 -1.5625q0 -0.953125 0.328125 -1.78125q0.28125 -0.734375 0.703125 -1.34375l0.625 0q-0.4375 0.984375 -0.609375 1.671875q-0.171875 0.6875 -0.171875 1.46875q0 0.53125 0.09375 1.09375q0.109375 0.546875 0.28125 1.0625q0.109375 0.328125 0.40625 0.953125zm1.3728333 -3.8125l-0.828125 -0.140625q0.140625 -0.5 0.484375 -0.734375q0.34375 -0.25 1.015625 -0.25q0.609375 0 0.90625 0.15625q0.296875 0.140625 0.421875 0.359375q0.125 0.21875 0.125 0.8125l-0.015625 1.0625q0 0.46875 0.046875 0.6875q0.046875 0.203125 0.171875 0.453125l-0.90625 0q-0.046875 -0.09375 -0.09375 -0.265625q-0.015625 -0.078125 -0.03125 -0.109375q-0.234375 0.21875 -0.5 0.34375q-0.265625 0.109375 -0.5625 0.109375q-0.546875 0 -0.859375 -0.28125q-0.296875 -0.296875 -0.296875 -0.734375q0 -0.296875 0.140625 -0.515625q0.140625 -0.234375 0.390625 -0.359375q0.25 -0.125 0.734375 -0.21875q0.640625 -0.109375 0.875 -0.21875l0 -0.09375q0 -0.265625 -0.125 -0.375q-0.125 -0.109375 -0.484375 -0.109375q-0.25 0 -0.390625 0.09375q-0.125 0.09375 -0.21875 0.328125zm1.21875 0.75q-0.171875 0.0625 -0.546875 0.140625q-0.375 0.078125 -0.5 0.15625q-0.171875 0.125 -0.171875 0.328125q0 0.1875 0.140625 0.328125q0.140625 0.140625 0.359375 0.140625q0.25 0 0.46875 -0.171875q0.171875 -0.109375 0.21875 -0.296875q0.03125 -0.109375 0.03125 -0.4375l0 -0.1875zm1.4831238 0.671875l0.921875 -0.140625q0.046875 0.265625 0.21875 0.40625q0.1875 0.140625 0.515625 0.140625q0.359375 0 0.53125 -0.140625q0.125 -0.078125 0.125 -0.234375q0 -0.109375 -0.0625 -0.171875q-0.078125 -0.0625 -0.3125 -0.125q-1.109375 -0.234375 -1.40625 -0.4375q-0.40625 -0.28125 -0.40625 -0.78125q0 -0.453125 0.34375 -0.75q0.359375 -0.3125 1.109375 -0.3125q0.703125 0 1.046875 0.234375q0.359375 0.234375 0.484375 0.6875l-0.859375 0.15625q-0.0625 -0.203125 -0.21875 -0.3125q-0.15625 -0.109375 -0.4375 -0.109375q-0.359375 0 -0.515625 0.109375q-0.109375 0.0625 -0.109375 0.171875q0 0.109375 0.09375 0.171875q0.125 0.09375 0.859375 0.265625q0.734375 0.15625 1.015625 0.390625q0.28125 0.25 0.28125 0.6875q0 0.46875 -0.390625 0.8125q-0.390625 0.34375 -1.171875 0.34375q-0.703125 0 -1.125 -0.28125q-0.40625 -0.296875 -0.53125 -0.78125zm3.7019043 0l0.921875 -0.140625q0.046875 0.265625 0.21875 0.40625q0.1875 0.140625 0.515625 0.140625q0.359375 0 0.53125 -0.140625q0.125 -0.078125 0.125 -0.234375q0 -0.109375 -0.0625 -0.171875q-0.078125 -0.0625 -0.3125 -0.125q-1.109375 -0.234375 -1.40625 -0.4375q-0.40625 -0.28125 -0.40625 -0.78125q0 -0.453125 0.34375 -0.75q0.359375 -0.3125 1.109375 -0.3125q0.703125 0 1.046875 0.234375q0.359375 0.234375 0.484375 0.6875l-0.859375 0.15625q-0.0625 -0.203125 -0.21875 -0.3125q-0.15625 -0.109375 -0.4375 -0.109375q-0.359375 0 -0.515625 0.109375q-0.109375 0.0625 -0.109375 0.171875q0 0.109375 0.09375 0.171875q0.125 0.09375 0.859375 0.265625q0.734375 0.15625 1.015625 0.390625q0.28125 0.25 0.28125 0.6875q0 0.46875 -0.390625 0.8125q-0.390625 0.34375 -1.171875 0.34375q-0.703125 0 -1.125 -0.28125q-0.40625 -0.296875 -0.53125 -0.78125zm4.701874 -1.421875l-0.828125 -0.140625q0.140625 -0.5 0.484375 -0.734375q0.34375 -0.25 1.015625 -0.25q0.609375 0 0.90625 0.15625q0.296875 0.140625 0.421875 0.359375q0.125 0.21875 0.125 0.8125l-0.015625 1.0625q0 0.46875 0.046875 0.6875q0.046875 0.203125 0.171875 0.453125l-0.90625 0q-0.046875 -0.09375 -0.09375 -0.265625q-0.015625 -0.078125 -0.03125 -0.109375q-0.234375 0.21875 -0.5 0.34375q-0.265625 0.109375 -0.5625 0.109375q-0.546875 0 -0.859375 -0.28125q-0.296875 -0.296875 -0.296875 -0.734375q0 -0.296875 0.140625 -0.515625q0.140625 -0.234375 0.390625 -0.359375q0.25 -0.125 0.734375 -0.21875q0.640625 -0.109375 0.875 -0.21875l0 -0.09375q0 -0.265625 -0.125 -0.375q-0.125 -0.109375 -0.484375 -0.109375q-0.25 0 -0.390625 0.09375q-0.125 0.09375 -0.21875 0.328125zm1.21875 0.75q-0.171875 0.0625 -0.546875 0.140625q-0.375 0.078125 -0.5 0.15625q-0.171875 0.125 -0.171875 0.328125q0 0.1875 0.140625 0.328125q0.140625 0.140625 0.359375 0.140625q0.25 0 0.46875 -0.171875q0.171875 -0.109375 0.21875 -0.296875q0.03125 -0.109375 0.03125 -0.4375l0 -0.1875zm1.3737793 -1.796875l0.96875 0l0.828125 2.453125l0.8125 -2.453125l0.9375 0l-1.21875 3.328125l-0.21875 0.59375q-0.125 0.3125 -0.234375 0.46875q-0.109375 0.15625 -0.25 0.25q-0.140625 0.109375 -0.34375 0.15625q-0.203125 0.0625 -0.46875 0.0625q-0.265625 0 -0.515625 -0.0625l-0.078125 -0.71875q0.21875 0.046875 0.390625 0.046875q0.3125 0 0.46875 -0.1875q0.15625 -0.1875 0.234375 -0.46875l-1.3125 -3.46875z" fill-rule="nonzero"/><path fill="#000000" d="m384.21823 78.14373l0.84375 0l0 0.46875q0.453125 -0.546875 1.078125 -0.546875q0.328125 0 0.5625 0.140625q0.25 0.140625 0.40625 0.40625q0.234375 -0.265625 0.5 -0.40625q0.265625 -0.140625 0.5625 -0.140625q0.375 0 0.640625 0.15625q0.265625 0.15625 0.390625 0.453125q0.09375 0.21875 0.09375 0.71875l0 2.203125l-0.90625 0l0 -1.96875q0 -0.515625 -0.09375 -0.671875q-0.125 -0.1875 -0.390625 -0.1875q-0.203125 0 -0.375 0.125q-0.15625 0.109375 -0.234375 0.34375q-0.078125 0.21875 -0.078125 0.703125l0 1.65625l-0.90625 0l0 -1.890625q0 -0.5 -0.046875 -0.640625q-0.046875 -0.15625 -0.15625 -0.21875q-0.109375 -0.078125 -0.28125 -0.078125q-0.203125 0 -0.375 0.109375q-0.171875 0.109375 -0.25 0.328125q-0.0625 0.21875 -0.0625 0.71875l0 1.671875l-0.921875 0l0 -3.453125zm7.996582 2.359375l0.90625 0.140625q-0.171875 0.515625 -0.5625 0.78125q-0.375 0.25 -0.9375 0.25q-0.90625 0 -1.34375 -0.59375q-0.328125 -0.46875 -0.328125 -1.1875q0 -0.859375 0.4375 -1.34375q0.453125 -0.484375 1.140625 -0.484375q0.765625 0 1.203125 0.515625q0.453125 0.5 0.4375 1.546875l-2.296875 0q0.015625 0.40625 0.21875 0.640625q0.21875 0.21875 0.53125 0.21875q0.21875 0 0.359375 -0.109375q0.15625 -0.125 0.234375 -0.375zm0.046875 -0.921875q-0.015625 -0.40625 -0.21875 -0.609375q-0.1875 -0.203125 -0.46875 -0.203125q-0.296875 0 -0.484375 0.21875q-0.203125 0.21875 -0.203125 0.59375l1.375 0zm3.2331543 -1.4375l0 0.734375l-0.625 0l0 1.390625q0 0.421875 0.015625 0.5q0.015625 0.0625 0.078125 0.109375q0.0625 0.046875 0.15625 0.046875q0.125 0 0.375 -0.09375l0.078125 0.703125q-0.328125 0.140625 -0.734375 0.140625q-0.234375 0 -0.4375 -0.078125q-0.203125 -0.09375 -0.296875 -0.21875q-0.09375 -0.125 -0.125 -0.359375q-0.03125 -0.15625 -0.03125 -0.640625l0 -1.5l-0.421875 0l0 -0.734375l0.421875 0l0 -0.6875l0.921875 -0.53125l0 1.21875l0.625 0zm1.3103333 1.046875l-0.828125 -0.140625q0.140625 -0.5 0.484375 -0.734375q0.34375 -0.25 1.015625 -0.25q0.609375 0 0.90625 0.15625q0.296875 0.140625 0.421875 0.359375q0.125 0.21875 0.125 0.8125l-0.015625 1.0625q0 0.46875 0.046875 0.6875q0.046875 0.203125 0.171875 0.453125l-0.90625 0q-0.046875 -0.09375 -0.09375 -0.265625q-0.015625 -0.078125 -0.03125 -0.109375q-0.234375 0.21875 -0.5 0.34375q-0.265625 0.109375 -0.5625 0.109375q-0.546875 0 -0.859375 -0.28125q-0.296875 -0.296875 -0.296875 -0.734375q0 -0.296875 0.140625 -0.515625q0.140625 -0.234375 0.390625 -0.359375q0.25 -0.125 0.734375 -0.21875q0.640625 -0.109375 0.875 -0.21875l0 -0.09375q0 -0.265625 -0.125 -0.375q-0.125 -0.109375 -0.484375 -0.109375q-0.25 0 -0.390625 0.09375q-0.125 0.09375 -0.21875 0.328125zm1.21875 0.75q-0.171875 0.0625 -0.546875 0.140625q-0.375 0.078125 -0.5 0.15625q-0.171875 0.125 -0.171875 0.328125q0 0.1875 0.140625 0.328125q0.140625 0.140625 0.359375 0.140625q0.25 0 0.46875 -0.171875q0.171875 -0.109375 0.21875 -0.296875q0.03125 -0.109375 0.03125 -0.4375l0 -0.1875zm4.967499 1.65625l-0.84375 0l0 -0.5q-0.21875 0.28125 -0.5 0.4375q-0.28125 0.140625 -0.578125 0.140625q-0.59375 0 -1.03125 -0.46875q-0.421875 -0.484375 -0.421875 -1.34375q0 -0.875 0.40625 -1.328125q0.421875 -0.46875 1.0625 -0.46875q0.578125 0 1.0 0.484375l0 -1.71875l0.90625 0l0 4.765625zm-2.4375 -1.796875q0 0.546875 0.15625 0.796875q0.21875 0.359375 0.609375 0.359375q0.328125 0 0.546875 -0.265625q0.21875 -0.28125 0.21875 -0.8125q0 -0.59375 -0.21875 -0.84375q-0.21875 -0.265625 -0.546875 -0.265625q-0.328125 0 -0.546875 0.265625q-0.21875 0.25 -0.21875 0.765625zm4.019043 -0.609375l-0.828125 -0.140625q0.140625 -0.5 0.484375 -0.734375q0.34375 -0.25 1.015625 -0.25q0.609375 0 0.90625 0.15625q0.296875 0.140625 0.421875 0.359375q0.125 0.21875 0.125 0.8125l-0.015625 1.0625q0 0.46875 0.046875 0.6875q0.046875 0.203125 0.171875 0.453125l-0.90625 0q-0.046875 -0.09375 -0.09375 -0.265625q-0.015625 -0.078125 -0.03125 -0.109375q-0.234375 0.21875 -0.5 0.34375q-0.265625 0.109375 -0.5625 0.109375q-0.546875 0 -0.859375 -0.28125q-0.296875 -0.296875 -0.296875 -0.734375q0 -0.296875 0.140625 -0.515625q0.140625 -0.234375 0.390625 -0.359375q0.25 -0.125 0.734375 -0.21875q0.640625 -0.109375 0.875 -0.21875l0 -0.09375q0 -0.265625 -0.125 -0.375q-0.125 -0.109375 -0.484375 -0.109375q-0.25 0 -0.390625 0.09375q-0.125 0.09375 -0.21875 0.328125zm1.21875 0.75q-0.171875 0.0625 -0.546875 0.140625q-0.375 0.078125 -0.5 0.15625q-0.171875 0.125 -0.171875 0.328125q0 0.1875 0.140625 0.328125q0.140625 0.140625 0.359375 0.140625q0.25 0 0.46875 -0.171875q0.171875 -0.109375 0.21875 -0.296875q0.03125 -0.109375 0.03125 -0.4375l0 -0.1875zm3.3893738 -1.796875l0 0.734375l-0.625 0l0 1.390625q0 0.421875 0.015625 0.5q0.015625 0.0625 0.078125 0.109375q0.0625 0.046875 0.15625 0.046875q0.125 0 0.375 -0.09375l0.078125 0.703125q-0.328125 0.140625 -0.734375 0.140625q-0.234375 0 -0.4375 -0.078125q-0.203125 -0.09375 -0.296875 -0.21875q-0.09375 -0.125 -0.125 -0.359375q-0.03125 -0.15625 -0.03125 -0.640625l0 -1.5l-0.421875 0l0 -0.734375l0.421875 0l0 -0.6875l0.921875 -0.53125l0 1.21875l0.625 0zm1.3103333 1.046875l-0.828125 -0.140625q0.140625 -0.5 0.484375 -0.734375q0.34375 -0.25 1.015625 -0.25q0.609375 0 0.90625 0.15625q0.296875 0.140625 0.421875 0.359375q0.125 0.21875 0.125 0.8125l-0.015625 1.0625q0 0.46875 0.046875 0.6875q0.046875 0.203125 0.171875 0.453125l-0.90625 0q-0.046875 -0.09375 -0.09375 -0.265625q-0.015625 -0.078125 -0.03125 -0.109375q-0.234375 0.21875 -0.5 0.34375q-0.265625 0.109375 -0.5625 0.109375q-0.546875 0 -0.859375 -0.28125q-0.296875 -0.296875 -0.296875 -0.734375q0 -0.296875 0.140625 -0.515625q0.140625 -0.234375 0.390625 -0.359375q0.25 -0.125 0.734375 -0.21875q0.640625 -0.109375 0.875 -0.21875l0 -0.09375q0 -0.265625 -0.125 -0.375q-0.125 -0.109375 -0.484375 -0.109375q-0.25 0 -0.390625 0.09375q-0.125 0.09375 -0.21875 0.328125zm1.21875 0.75q-0.171875 0.0625 -0.546875 0.140625q-0.375 0.078125 -0.5 0.15625q-0.171875 0.125 -0.171875 0.328125q0 0.1875 0.140625 0.328125q0.140625 0.140625 0.359375 0.140625q0.25 0 0.46875 -0.171875q0.171875 -0.109375 0.21875 -0.296875q0.03125 -0.109375 0.03125 -0.4375l0 -0.1875zm1.5456543 3.0625q0.28125 -0.578125 0.390625 -0.890625q0.109375 -0.3125 0.203125 -0.703125q0.09375 -0.40625 0.140625 -0.765625q0.046875 -0.375 0.046875 -0.75q0 -0.78125 -0.171875 -1.46875q-0.171875 -0.6875 -0.609375 -1.671875l0.625 0q0.484375 0.703125 0.75 1.484375q0.28125 0.78125 0.28125 1.578125q0 0.6875 -0.21875 1.46875q-0.25 0.859375 -0.796875 1.71875l-0.640625 0z" fill-rule="nonzero"/><path fill="#fce5cd" d="m416.4777 43.622047l0 -16.0l16.0 16.0z" fill-rule="evenodd"/><path stroke="#000000" stroke-width="1.0" stroke-linejoin="round" stroke-linecap="butt" d="m416.4777 43.622047l0 -16.0l16.0 16.0z" fill-rule="evenodd"/><path fill="#cccccc" d="m433.42258 26.078741l0 19.086615l-17.88977 -19.086615z" fill-rule="evenodd"/><path fill="#000000" fill-opacity="0.0" d="m13.755905 51.089237l100.72441 0l0 31.433071l-100.72441 0z" fill-rule="evenodd"/><path fill="#000000" d="m26.55278 64.743614l4.34375 10.828125l4.328125 -10.828125l2.265625 0l0 13.265625l-1.75 0l0 -5.171875l0.171875 -5.5625l-4.359375 10.734375l-1.34375 0l-4.34375 -10.71875l0.171875 5.546875l0 5.171875l-1.734375 0l0 -13.265625l2.25 0zm17.85028 13.453125q-2.0 0 -3.265625 -1.3125q-1.25 -1.328125 -1.25 -3.53125l0 -0.3125q0 -1.46875 0.5625 -2.609375q0.5625 -1.15625 1.5625 -1.796875q1.015625 -0.65625 2.1875 -0.65625q1.921875 0 2.984375 1.265625q1.0625 1.265625 1.0625 3.625l0 0.6875l-6.671875 0q0.03125 1.46875 0.84375 2.375q0.828125 0.890625 2.078125 0.890625q0.890625 0 1.515625 -0.359375q0.625 -0.375 1.078125 -0.96875l1.03125 0.796875q-1.234375 1.90625 -3.71875 1.90625zm-0.203125 -8.84375q-1.015625 0 -1.71875 0.75q-0.6875 0.734375 -0.84375 2.078125l4.9375 0l0 -0.125q-0.078125 -1.28125 -0.703125 -1.984375q-0.609375 -0.71875 -1.671875 -0.71875zm8.290054 -3.59375l0 2.390625l1.84375 0l0 1.3125l-1.84375 0l0 6.109375q0 0.59375 0.234375 0.890625q0.25 0.296875 0.84375 0.296875q0.296875 0 0.8125 -0.109375l0 1.359375q-0.671875 0.1875 -1.296875 0.1875q-1.125 0 -1.703125 -0.6875q-0.578125 -0.6875 -0.578125 -1.9375l0 -6.109375l-1.796875 0l0 -1.3125l1.796875 0l0 -2.390625l1.6875 0zm9.891129 12.25q-0.140625 -0.296875 -0.234375 -1.03125q-1.171875 1.21875 -2.8125 1.21875q-1.453125 0 -2.390625 -0.828125q-0.921875 -0.828125 -0.921875 -2.09375q0 -1.53125 1.15625 -2.375q1.171875 -0.859375 3.296875 -0.859375l1.640625 0l0 -0.78125q0 -0.890625 -0.53125 -1.40625q-0.515625 -0.53125 -1.546875 -0.53125q-0.90625 0 -1.515625 0.46875q-0.609375 0.453125 -0.609375 1.09375l-1.703125 0q0 -0.734375 0.515625 -1.421875q0.53125 -0.6875 1.421875 -1.078125q0.90625 -0.40625 1.984375 -0.40625q1.703125 0 2.671875 0.859375q0.96875 0.84375 1.0 2.328125l0 4.53125q0 1.359375 0.34375 2.171875l0 0.140625l-1.765625 0zm-2.796875 -1.28125q0.796875 0 1.5 -0.40625q0.71875 -0.421875 1.03125 -1.078125l0 -2.015625l-1.3125 0q-3.109375 0 -3.109375 1.8125q0 0.796875 0.53125 1.25q0.53125 0.4375 1.359375 0.4375zm6.4448547 -3.734375q0 -2.265625 1.078125 -3.640625q1.078125 -1.375 2.8125 -1.375q1.734375 0 2.75 1.171875l0 -5.140625l1.6875 0l0 14.0l-1.546875 0l-0.09375 -1.0625q-1.0 1.25 -2.8125 1.25q-1.703125 0 -2.796875 -1.40625q-1.078125 -1.40625 -1.078125 -3.65625l0 -0.140625zm1.6875 0.203125q0 1.671875 0.6875 2.625q0.703125 0.9375 1.921875 0.9375q1.609375 0 2.34375 -1.4375l0 -4.53125q-0.765625 -1.390625 -2.328125 -1.390625q-1.234375 0 -1.9375 0.953125q-0.6875 0.953125 -0.6875 2.84375zm15.333969 4.8125q-0.140625 -0.296875 -0.234375 -1.03125q-1.171875 1.21875 -2.8125 1.21875q-1.453125 0 -2.390625 -0.828125q-0.921875 -0.828125 -0.921875 -2.09375q0 -1.53125 1.15625 -2.375q1.171875 -0.859375 3.296875 -0.859375l1.640625 0l0 -0.78125q0 -0.890625 -0.53125 -1.40625q-0.515625 -0.53125 -1.546875 -0.53125q-0.90625 0 -1.515625 0.46875q-0.609375 0.453125 -0.609375 1.09375l-1.703125 0q0 -0.734375 0.515625 -1.421875q0.53125 -0.6875 1.421875 -1.078125q0.90625 -0.40625 1.984375 -0.40625q1.703125 0 2.671875 0.859375q0.96875 0.84375 1.0 2.328125l0 4.53125q0 1.359375 0.34375 2.171875l0 0.140625l-1.765625 0zm-2.796875 -1.28125q0.796875 0 1.5 -0.40625q0.71875 -0.421875 1.03125 -1.078125l0 -2.015625l-1.3125 0q-3.109375 0 -3.109375 1.8125q0 0.796875 0.53125 1.25q0.53125 0.4375 1.359375 0.4375zm9.14798 -10.96875l0 2.390625l1.84375 0l0 1.3125l-1.84375 0l0 6.109375q0 0.59375 0.234375 0.890625q0.25 0.296875 0.84375 0.296875q0.296875 0 0.8125 -0.109375l0 1.359375q-0.671875 0.1875 -1.296875 0.1875q-1.125 0 -1.703125 -0.6875q-0.578125 -0.6875 -0.578125 -1.9375l0 -6.109375l-1.796875 0l0 -1.3125l1.796875 0l0 -2.390625l1.6875 0zm9.891129 12.25q-0.140625 -0.296875 -0.234375 -1.03125q-1.171875 1.21875 -2.8125 1.21875q-1.453125 0 -2.390625 -0.828125q-0.921875 -0.828125 -0.921875 -2.09375q0 -1.53125 1.15625 -2.375q1.171875 -0.859375 3.296875 -0.859375l1.640625 0l0 -0.78125q0 -0.890625 -0.53125 -1.40625q-0.515625 -0.53125 -1.546875 -0.53125q-0.90625 0 -1.515625 0.46875q-0.609375 0.453125 -0.609375 1.09375l-1.703125 0q0 -0.734375 0.515625 -1.421875q0.53125 -0.6875 1.421875 -1.078125q0.90625 -0.40625 1.984375 -0.40625q1.703125 0 2.671875 0.859375q0.96875 0.84375 1.0 2.328125l0 4.53125q0 1.359375 0.34375 2.171875l0 0.140625l-1.765625 0zm-2.796875 -1.28125q0.796875 0 1.5 -0.40625q0.71875 -0.421875 1.03125 -1.078125l0 -2.015625l-1.3125 0q-3.109375 0 -3.109375 1.8125q0 0.796875 0.53125 1.25q0.53125 0.4375 1.359375 0.4375z" fill-rule="nonzero"/><path fill="#000000" fill-opacity="0.0" d="m13.755905 150.66142l100.72441 0l0 31.43306l-100.72441 0z" fill-rule="evenodd"/><path fill="#000000" d="m31.61528 174.11267l-5.546875 0l-1.25 3.46875l-1.8125 0l5.0625 -13.265625l1.53125 0l5.078125 13.265625l-1.796875 0l-1.265625 -3.46875zm-5.03125 -1.4375l4.515625 0l-2.265625 -6.203125l-2.25 6.203125zm15.357788 2.296875q0 -0.6875 -0.515625 -1.0625q-0.515625 -0.375 -1.796875 -0.640625q-1.28125 -0.28125 -2.03125 -0.65625q-0.75 -0.390625 -1.109375 -0.921875q-0.359375 -0.53125 -0.359375 -1.265625q0 -1.203125 1.015625 -2.03125q1.03125 -0.84375 2.625 -0.84375q1.671875 0 2.71875 0.859375q1.046875 0.859375 1.046875 2.21875l-1.6875 0q0 -0.703125 -0.59375 -1.203125q-0.59375 -0.5 -1.484375 -0.5q-0.921875 0 -1.4375 0.40625q-0.515625 0.390625 -0.515625 1.046875q0 0.609375 0.484375 0.921875q0.484375 0.3125 1.734375 0.59375q1.265625 0.28125 2.046875 0.671875q0.78125 0.390625 1.15625 0.9375q0.390625 0.546875 0.390625 1.34375q0 1.328125 -1.0625 2.125q-1.046875 0.796875 -2.734375 0.796875q-1.1875 0 -2.109375 -0.421875q-0.90625 -0.421875 -1.421875 -1.171875q-0.515625 -0.75 -0.515625 -1.625l1.6875 0q0.046875 0.84375 0.671875 1.34375q0.640625 0.5 1.6875 0.5q0.953125 0 1.53125 -0.390625q0.578125 -0.390625 0.578125 -1.03125zm9.619629 0q0 -0.6875 -0.515625 -1.0625q-0.515625 -0.375 -1.796875 -0.640625q-1.28125 -0.28125 -2.03125 -0.65625q-0.75 -0.390625 -1.109375 -0.921875q-0.359375 -0.53125 -0.359375 -1.265625q0 -1.203125 1.015625 -2.03125q1.03125 -0.84375 2.625 -0.84375q1.671875 0 2.71875 0.859375q1.046875 0.859375 1.046875 2.21875l-1.6875 0q0 -0.703125 -0.59375 -1.203125q-0.59375 -0.5 -1.484375 -0.5q-0.921875 0 -1.4375 0.40625q-0.515625 0.390625 -0.515625 1.046875q0 0.609375 0.484375 0.921875q0.484375 0.3125 1.734375 0.59375q1.265625 0.28125 2.046875 0.671875q0.78125 0.390625 1.15625 0.9375q0.390625 0.546875 0.390625 1.34375q0 1.328125 -1.0625 2.125q-1.046875 0.796875 -2.734375 0.796875q-1.1875 0 -2.109375 -0.421875q-0.90625 -0.421875 -1.421875 -1.171875q-0.515625 -0.75 -0.515625 -1.625l1.6875 0q0.046875 0.84375 0.671875 1.34375q0.640625 0.5 1.6875 0.5q0.953125 0 1.53125 -0.390625q0.578125 -0.390625 0.578125 -1.03125zm9.963379 2.609375q-0.140625 -0.296875 -0.234375 -1.03125q-1.171875 1.21875 -2.8125 1.21875q-1.453125 0 -2.390625 -0.828125q-0.921875 -0.828125 -0.921875 -2.09375q0 -1.53125 1.15625 -2.375q1.171875 -0.859375 3.296875 -0.859375l1.640625 0l0 -0.78125q0 -0.890625 -0.53125 -1.40625q-0.515625 -0.53125 -1.546875 -0.53125q-0.90625 0 -1.515625 0.46875q-0.609375 0.453125 -0.609375 1.09375l-1.703125 0q0 -0.734375 0.515625 -1.421875q0.53125 -0.6875 1.421875 -1.078125q0.90625 -0.40625 1.984375 -0.40625q1.703125 0 2.671875 0.859375q0.96875 0.84375 1.0 2.328125l0 4.53125q0 1.359375 0.34375 2.171875l0 0.140625l-1.765625 0zm-2.796875 -1.28125q0.796875 0 1.5 -0.40625q0.71875 -0.421875 1.03125 -1.078125l0 -2.015625l-1.3125 0q-3.109375 0 -3.109375 1.8125q0 0.796875 0.53125 1.25q0.53125 0.4375 1.359375 0.4375zm9.948761 -1.1875l2.296875 -7.390625l1.796875 0l-3.953125 11.375q-0.921875 2.46875 -2.921875 2.46875l-0.328125 -0.03125l-0.625 -0.125l0 -1.359375l0.453125 0.03125q0.859375 0 1.328125 -0.34375q0.484375 -0.34375 0.796875 -1.265625l0.375 -1.0l-3.515625 -9.75l1.84375 0l2.453125 7.390625z" fill-rule="nonzero"/><path fill="#000000" d="m24.30278 199.98141l0 -13.265625l3.734375 0q1.734375 0 3.0625 0.765625q1.328125 0.765625 2.046875 2.1875q0.734375 1.40625 0.734375 3.234375l0 0.84375q0 1.875 -0.71875 3.296875q-0.71875 1.40625 -2.0625 2.171875q-1.34375 0.75 -3.140625 0.765625l-3.65625 0zm1.734375 -11.828125l0 10.390625l1.84375 0q2.03125 0 3.15625 -1.25q1.125 -1.25 1.125 -3.578125l0 -0.78125q0 -2.25 -1.0625 -3.5q-1.0625 -1.265625 -3.015625 -1.28125l-2.046875 0zm16.31218 11.828125q-0.140625 -0.296875 -0.234375 -1.03125q-1.171875 1.21875 -2.8125 1.21875q-1.453125 0 -2.390625 -0.828125q-0.921875 -0.828125 -0.921875 -2.09375q0 -1.53125 1.15625 -2.375q1.171875 -0.859375 3.296875 -0.859375l1.640625 0l0 -0.78125q0 -0.890625 -0.53125 -1.40625q-0.515625 -0.53125 -1.546875 -0.53125q-0.90625 0 -1.515625 0.46875q-0.609375 0.453125 -0.609375 1.09375l-1.703125 0q0 -0.734375 0.515625 -1.421875q0.53125 -0.6875 1.421875 -1.078125q0.90625 -0.40625 1.984375 -0.40625q1.703125 0 2.671875 0.859375q0.96875 0.84375 1.0 2.328125l0 4.53125q0 1.359375 0.34375 2.171875l0 0.140625l-1.765625 0zm-2.796875 -1.28125q0.796875 0 1.5 -0.40625q0.71875 -0.421875 1.03125 -1.078125l0 -2.015625l-1.3125 0q-3.109375 0 -3.109375 1.8125q0 0.796875 0.53125 1.25q0.53125 0.4375 1.359375 0.4375zm9.14798 -10.96875l0 2.390625l1.84375 0l0 1.3125l-1.84375 0l0 6.109375q0 0.59375 0.234375 0.890625q0.25 0.296875 0.84375 0.296875q0.296875 0 0.8125 -0.109375l0 1.359375q-0.671875 0.1875 -1.296875 0.1875q-1.125 0 -1.703125 -0.6875q-0.578125 -0.6875 -0.578125 -1.9375l0 -6.109375l-1.796875 0l0 -1.3125l1.796875 0l0 -2.390625l1.6875 0zm9.891129 12.25q-0.140625 -0.296875 -0.234375 -1.03125q-1.171875 1.21875 -2.8125 1.21875q-1.453125 0 -2.390625 -0.828125q-0.921875 -0.828125 -0.921875 -2.09375q0 -1.53125 1.15625 -2.375q1.171875 -0.859375 3.296875 -0.859375l1.640625 0l0 -0.78125q0 -0.890625 -0.53125 -1.40625q-0.515625 -0.53125 -1.546875 -0.53125q-0.90625 0 -1.515625 0.46875q-0.609375 0.453125 -0.609375 1.09375l-1.703125 0q0 -0.734375 0.515625 -1.421875q0.53125 -0.6875 1.421875 -1.078125q0.90625 -0.40625 1.984375 -0.40625q1.703125 0 2.671875 0.859375q0.96875 0.84375 1.0 2.328125l0 4.53125q0 1.359375 0.34375 2.171875l0 0.140625l-1.765625 0zm-2.796875 -1.28125q0.796875 0 1.5 -0.40625q0.71875 -0.421875 1.03125 -1.078125l0 -2.015625l-1.3125 0q-3.109375 0 -3.109375 1.8125q0 0.796875 0.53125 1.25q0.53125 0.4375 1.359375 0.4375z" fill-rule="nonzero"/><path fill="#f9cb9c" d="m163.9895 157.21846l113.995636 0l0 47.4543c-56.99475 0 -56.99475 18.258026 -113.995636 9.129013zm9.391846 0l0 -6.1521454l113.21707 0l0 47.751984c-4.3035583 0 -8.613281 0.33076477 -8.613281 0.33076477l0 -41.930603zm8.827835 -6.1521454l0 -6.0033264l114.19795 0l0 47.60315c-4.904358 0 -9.808716 0.2480774 -9.808716 0.2480774l0 -41.8479z" fill-rule="evenodd"/><path fill="#000000" fill-opacity="0.0" d="m163.9895 157.21846l113.995636 0l0 47.4543c-56.99475 0 -56.99475 18.258026 -113.995636 9.129013zm9.391846 0l0 -6.1521454l113.21707 0l0 47.751984c-4.3035583 0 -8.613281 0.33076477 -8.613281 0.33076477m-95.775955 -48.08275l0 -6.0033264l114.19795 0l0 47.60315c-4.904358 0 -9.808716 0.2480774 -9.808716 0.2480774" fill-rule="evenodd"/><path fill="#000000" fill-opacity="0.0" d="m163.9895 213.80177c57.000885 9.129013 57.000885 -9.129013 113.995636 -9.129013l0 -5.523697c0 0 4.309723 -0.33076477 8.613281 -0.33076477l0 -5.9040833c0 0 4.904358 -0.2480774 9.808716 -0.2480774l0 -47.60315l-114.19795 0l0 6.0033264l-8.827835 0l0 6.1521454l-9.391846 0z" fill-rule="evenodd"/><path stroke="#000000" stroke-width="1.0" stroke-linejoin="round" stroke-linecap="butt" d="m163.9895 157.21846l113.995636 0l0 47.4543c-56.99475 0 -56.99475 18.258026 -113.995636 9.129013zm9.391846 0l0 -6.1521454l113.21707 0l0 47.751984c-4.3035583 0 -8.613281 0.33076477 -8.613281 0.33076477m-95.775955 -48.08275l0 -6.0033264l114.19795 0l0 47.60315c-4.904358 0 -9.808716 0.2480774 -9.808716 0.2480774" fill-rule="evenodd"/><path fill="#000000" d="m181.74567 188.97012l-0.875 0l0 -3.0625l-3.34375 0l0 3.0625l-0.875 0l0 -6.625l0.875 0l0 2.84375l3.34375 0l0 -2.84375l0.875 0l0 6.625zm6.0177765 -5.90625l-2.140625 0l0 5.90625l-0.875 0l0 -5.90625l-2.125 0l0 -0.71875l5.140625 0l0 0.71875zm4.2839966 4.171875l-2.78125 0l-0.625 1.734375l-0.90625 0l2.53125 -6.625l0.765625 0l2.546875 6.625l-0.90625 0l-0.625 -1.734375zm-2.515625 -0.71875l2.25 0l-1.125 -3.09375l-1.125 3.09375zm8.350769 3.140625l-4.171875 0l0 -0.6875l4.171875 0l0 0.6875zm2.3179626 -3.8125l1.09375 -1.796875l0.984375 0l-1.625 2.4375l1.671875 2.484375l-0.984375 0l-1.125 -1.84375l-1.140625 1.84375l-0.984375 0l1.65625 -2.484375l-1.609375 -2.4375l0.984375 0l1.078125 1.796875zm4.6230774 0l1.09375 -1.796875l0.984375 0l-1.625 2.4375l1.671875 2.484375l-0.984375 0l-1.125 -1.84375l-1.140625 1.84375l-0.984375 0l1.65625 -2.484375l-1.609375 -2.4375l0.984375 0l1.078125 1.796875zm4.6230774 0l1.09375 -1.796875l0.984375 0l-1.625 2.4375l1.671875 2.484375l-0.984375 0l-1.125 -1.84375l-1.140625 1.84375l-0.984375 0l1.65625 -2.484375l-1.609375 -2.4375l0.984375 0l1.078125 1.796875zm6.5137024 3.8125l-4.171875 0l0 -0.6875l4.171875 0l0 0.6875zm2.3179626 -3.8125l1.09375 -1.796875l0.984375 0l-1.625 2.4375l1.671875 2.484375l-0.984375 0l-1.125 -1.84375l-1.140625 1.84375l-0.984375 0l1.65625 -2.484375l-1.609375 -2.4375l0.984375 0l1.078125 1.796875zm4.6230774 0l1.09375 -1.796875l0.984375 0l-1.625 2.4375l1.671875 2.484375l-0.984375 0l-1.125 -1.84375l-1.140625 1.84375l-0.984375 0l1.65625 -2.484375l-1.609375 -2.4375l0.984375 0l1.078125 1.796875zm4.6230774 0l1.09375 -1.796875l0.984375 0l-1.625 2.4375l1.671875 2.484375l-0.984375 0l-1.125 -1.84375l-1.140625 1.84375l-0.984375 0l1.65625 -2.484375l-1.609375 -2.4375l0.984375 0l1.078125 1.796875zm2.9824524 2.6875q0 -0.21875 0.125 -0.359375q0.140625 -0.15625 0.390625 -0.15625q0.265625 0 0.390625 0.15625q0.140625 0.140625 0.140625 0.359375q0 0.203125 -0.140625 0.34375q-0.125 0.140625 -0.390625 0.140625q-0.25 0 -0.390625 -0.140625q-0.125 -0.140625 -0.125 -0.34375zm2.845642 0.4375l0 -4.28125l-0.78125 0l0 -0.640625l0.78125 0l0 -0.515625q0 -0.78125 0.421875 -1.21875q0.4375 -0.4375 1.203125 -0.4375q0.296875 0 0.578125 0.078125l-0.046875 0.6875q-0.203125 -0.046875 -0.453125 -0.046875q-0.40625 0 -0.640625 0.25q-0.21875 0.234375 -0.21875 0.671875l0 0.53125l1.0625 0l0 0.640625l-1.0625 0l0 4.28125l-0.84375 0zm5.879059 0q-0.078125 -0.140625 -0.125 -0.515625q-0.59375 0.609375 -1.40625 0.609375q-0.71875 0 -1.1875 -0.40625q-0.46875 -0.421875 -0.46875 -1.046875q0 -0.78125 0.578125 -1.203125q0.59375 -0.421875 1.65625 -0.421875l0.8125 0l0 -0.390625q0 -0.4375 -0.265625 -0.703125q-0.265625 -0.265625 -0.78125 -0.265625q-0.453125 0 -0.765625 0.234375q-0.296875 0.21875 -0.296875 0.546875l-0.84375 0q0 -0.375 0.265625 -0.71875q0.265625 -0.34375 0.703125 -0.53125q0.453125 -0.203125 1.0 -0.203125q0.84375 0 1.328125 0.421875q0.484375 0.421875 0.5 1.171875l0 2.265625q0 0.6875 0.171875 1.078125l0 0.078125l-0.875 0zm-1.40625 -0.640625q0.390625 0 0.75 -0.203125q0.359375 -0.203125 0.515625 -0.53125l0 -1.015625l-0.65625 0q-1.546875 0 -1.546875 0.90625q0 0.390625 0.265625 0.625q0.265625 0.21875 0.671875 0.21875zm6.29274 -0.671875q0 -0.34375 -0.25 -0.53125q-0.25 -0.1875 -0.890625 -0.3125q-0.640625 -0.140625 -1.015625 -0.328125q-0.375 -0.203125 -0.5625 -0.46875q-0.1875 -0.265625 -0.1875 -0.625q0 -0.609375 0.515625 -1.015625q0.515625 -0.421875 1.3125 -0.421875q0.84375 0 1.359375 0.4375q0.515625 0.421875 0.515625 1.09375l-0.84375 0q0 -0.34375 -0.296875 -0.59375q-0.28125 -0.25 -0.734375 -0.25q-0.453125 0 -0.71875 0.203125q-0.265625 0.203125 -0.265625 0.515625q0 0.3125 0.234375 0.46875q0.25 0.15625 0.875 0.296875q0.640625 0.140625 1.03125 0.34375q0.390625 0.1875 0.578125 0.46875q0.1875 0.265625 0.1875 0.671875q0 0.65625 -0.53125 1.0625q-0.515625 0.390625 -1.359375 0.390625q-0.59375 0 -1.046875 -0.203125q-0.453125 -0.21875 -0.71875 -0.59375q-0.25 -0.375 -0.25 -0.8125l0.84375 0q0.015625 0.421875 0.328125 0.671875q0.328125 0.25 0.84375 0.25q0.46875 0 0.75 -0.1875q0.296875 -0.203125 0.296875 -0.53125zm3.0910645 -4.8125l0 1.203125l0.921875 0l0 0.640625l-0.921875 0l0 3.0625q0 0.296875 0.125 0.453125q0.125 0.140625 0.421875 0.140625q0.140625 0 0.390625 -0.0625l0 0.6875q-0.328125 0.09375 -0.640625 0.09375q-0.5625 0 -0.859375 -0.34375q-0.28125 -0.34375 -0.28125 -0.96875l0 -3.0625l-0.890625 0l0 -0.640625l0.890625 0l0 -1.203125l0.84375 0zm1.7033844 3.625q0 -1.171875 0.53125 -1.84375q0.53125 -0.671875 1.421875 -0.671875q0.875 0 1.390625 0.578125l0.03125 -0.484375l0.78125 0l0 6.8125l-0.84375 0l0 -2.34375q-0.515625 0.546875 -1.359375 0.546875q-0.890625 0 -1.421875 -0.6875q-0.53125 -0.703125 -0.53125 -1.859375l0 -0.046875zm0.84375 0.09375q0 0.84375 0.34375 1.328125q0.359375 0.484375 0.96875 0.484375q0.75 0 1.15625 -0.671875l0 -2.40625q-0.40625 -0.65625 -1.140625 -0.65625q-0.609375 0 -0.96875 0.484375q-0.359375 0.484375 -0.359375 1.4375zm4.6767273 1.96875q0 -0.21875 0.125 -0.359375q0.140625 -0.15625 0.390625 -0.15625q0.265625 0 0.390625 0.15625q0.140625 0.140625 0.140625 0.359375q0 0.203125 -0.140625 0.34375q-0.125 0.140625 -0.390625 0.140625q-0.25 0 -0.390625 -0.140625q-0.125 -0.140625 -0.125 -0.34375zm2.2362518 -2.0625q0 -1.15625 0.53125 -1.828125q0.53125 -0.6875 1.40625 -0.6875q0.90625 0 1.421875 0.640625l0.03125 -0.546875l0.765625 0l0 4.796875q0 0.96875 -0.5625 1.515625q-0.5625 0.546875 -1.515625 0.546875q-0.53125 0 -1.046875 -0.234375q-0.515625 -0.21875 -0.78125 -0.609375l0.4375 -0.515625q0.546875 0.671875 1.328125 0.671875q0.609375 0 0.953125 -0.34375q0.34375 -0.34375 0.34375 -0.96875l0 -0.421875q-0.5 0.578125 -1.375 0.578125q-0.875 0 -1.40625 -0.6875q-0.53125 -0.703125 -0.53125 -1.90625zm0.84375 0.09375q0 0.828125 0.34375 1.3125q0.34375 0.46875 0.953125 0.46875q0.796875 0 1.171875 -0.71875l0 -2.25q-0.390625 -0.703125 -1.15625 -0.703125q-0.609375 0 -0.96875 0.484375q-0.34375 0.46875 -0.34375 1.40625zm5.389679 1.71875l2.875 0l0 0.6875l-3.90625 0l0 -0.625l2.71875 -3.609375l-2.6875 0l0 -0.6875l3.734375 0l0 0.59375l-2.734375 3.640625z" fill-rule="nonzero"/></g></svg>